<?xml version="1.0" encoding="UTF-8" standalone="no"?>
<!-- Created with Inkscape (http://www.inkscape.org/) -->

<svg
   xmlns:dc="http://purl.org/dc/elements/1.1/"
   xmlns:cc="http://creativecommons.org/ns#"
   xmlns:rdf="http://www.w3.org/1999/02/22-rdf-syntax-ns#"
   xmlns:svg="http://www.w3.org/2000/svg"
   xmlns="http://www.w3.org/2000/svg"
   xmlns:sodipodi="http://sodipodi.sourceforge.net/DTD/sodipodi-0.dtd"
   xmlns:inkscape="http://www.inkscape.org/namespaces/inkscape"
   id="svg2"
   version="1.1"
   inkscape:version="0.91 r13725"
   xml:space="preserve"
   width="932.90002"
   height="336.8125"
   viewBox="0 0 932.90002 336.8125"
   sodipodi:docname="Flyin_16.svg"><metadata
     id="metadata8"><rdf:RDF><cc:Work
         rdf:about=""><dc:format>image/svg+xml</dc:format><dc:type
           rdf:resource="http://purl.org/dc/dcmitype/StillImage" /><dc:title></dc:title></cc:Work></rdf:RDF></metadata><defs
     id="defs6"><clipPath
       clipPathUnits="userSpaceOnUse"
       id="clipPath78"><path
         d="m 0,0 0,2694 2798,0 L 2798,0 0,0 Z"
         id="path80"
         inkscape:connector-curvature="0" /></clipPath></defs><sodipodi:namedview
     pagecolor="#ffffff"
     bordercolor="#666666"
     borderopacity="1"
     objecttolerance="10"
     gridtolerance="10"
     guidetolerance="10"
     inkscape:pageopacity="0"
     inkscape:pageshadow="2"
     inkscape:window-width="1912"
     inkscape:window-height="1104"
     id="namedview4"
     showgrid="false"
     inkscape:zoom="0.7031836"
     inkscape:cx="613.16525"
     inkscape:cy="95.984218"
     inkscape:window-x="1920"
     inkscape:window-y="0"
     inkscape:window-maximized="1"
     inkscape:current-layer="g12" /><g
     id="g10"
     inkscape:groupmode="layer"
     inkscape:label="ink_ext_XXXXXX"
     transform="matrix(1.25,0,0,-1.25,0,336.8125)"><g
       id="g12"
       transform="scale(0.1,0.1)"><path
         d="m 6090.55,381.32 c -9.05,0 -25.05,-1.179 -48.44,-3.929 l 0,-5.36 c 0,-34.312 -0.24,-58.621 39.86,-58.621 16.91,0 39.17,4.86 39.17,32.199 0,22.27 -6.25,35.711 -30.59,35.711 z m -9.51,-79.281 c -52.4,0 -52.4,29.211 -52.4,73 0,40.82 5.58,84.359 57.51,84.359 9.02,0 27.1,-1.578 38.22,-6 1.64,-0.718 1.64,-2.078 1.39,-3.476 l -0.68,-3.711 c -0.25,-1.172 -0.71,-2.539 -3.25,-2.332 -11.59,1.43 -21.77,3.5 -36.18,3.5 -35.92,0 -42.39,-27.129 -43.33,-57.719 26.67,3.031 36.62,3.692 51.48,3.692 27.57,0 40.79,-14.133 40.79,-47.27 0,-31.992 -23.42,-44.043 -53.55,-44.043 z m -94.83,4.152 c 0,-1.359 -0.7,-2.07 -2.57,-2.07 l -76.92,0 c -1.4,0 -2.33,0.711 -2.33,2.07 l 0,7.899 c 0,1.609 0.69,2.101 2.33,2.101 l 31.49,0 0,124.911 -27.81,0 c -1.61,0 -2.32,0.488 -2.32,2.097 l 0,3.692 c 0,1.418 0.25,2.351 1.86,2.781 l 24.12,6.969 c 2.07,0.679 4.62,1.179 6.94,1.179 l 7.65,0 c 2.54,0 2.79,-1.179 2.79,-2.789 l 0,-138.84 32.2,0 c 1.64,0 2.57,-0.492 2.57,-2.101 l 0,-7.899 z m -175.28,142.118 c -35.02,0 -38.96,-32.95 -38.96,-67.477 0,-37.07 3.48,-66.992 38.96,-66.992 35.68,0 41,31.09 41,66.992 0,39.887 -3.92,67.477 -41,67.477 z m 0,-146.27 c -50.32,0 -52.39,45.441 -52.39,81.141 0,24.812 2.78,76.492 52.39,76.492 49.36,0 54.23,-39.422 54.23,-76.492 0,-32.02 -3,-81.141 -54.23,-81.141 z m -94.99,2.293 -93.87,0 c -2.07,0 -2.32,0.719 -2.32,2.109 l 0,8.821 c 0,3.218 0.71,4.148 1.86,5.297 20.4,19.511 40.57,38.961 62.12,61.191 10.2,10.691 18.3,21.102 18.3,35.469 0,20.652 -5.08,30.16 -36.84,30.16 -14.38,0 -26.89,-2.07 -38.47,-3.5 -2.54,-0.207 -3.01,1.16 -3.25,2.082 l -0.69,3.961 c -0.24,1.398 -0.24,2.758 1.4,3.476 11.11,4.422 31.74,6 40.78,6 39.65,0 50.29,-14.796 50.29,-39.148 0,-20.41 -5.78,-29.418 -20.87,-45.43 -18.98,-19.699 -29.66,-29.89 -59.79,-58.629 l 80.89,0 c 1.85,0 2.78,-0.492 2.78,-2.562 l 0,-7.438 c 0,-1.14 -0.68,-1.859 -2.32,-1.859 z m -294.45,144.91 0,5.539 c 0,2.11 0.72,3.039 3.5,3.039 l 93.41,0 c 2.78,0 3.47,-0.929 3.47,-3.039 l 0,-5.539 c 0,-2.57 -0.69,-3.5 -3.47,-3.5 l -40.11,0 -0.22,-138.133 c 0,-2.777 -0.71,-3.488 -3.03,-3.488 l -6.48,0 c -2.56,0 -3.49,0.711 -3.49,3.488 l 0,138.133 -40.08,0 c -2.78,0 -3.5,0.93 -3.5,3.5 z M 5288.5,308.301 c -2.07,0.929 -2.32,2.32 -1.86,3.691 l 0.71,4.418 c 0.23,1.399 1.15,1.641 2.3,1.399 14.15,-1.618 36.39,-3.477 42.43,-3.477 23.88,0 37.78,9.938 37.78,28.5 0,23.629 -8.11,29.668 -35,34.316 -28.74,4.864 -48.43,10.411 -48.43,39.852 0,27.129 16.91,42.191 48.19,42.191 9.04,0 29.44,-1.621 40.57,-6.019 1.64,-0.711 1.64,-2.082 1.39,-3.5 l -0.93,-3.711 c 0,-1.152 -0.46,-2.52 -3,-2.289 -11.59,1.367 -24.12,3.469 -38.5,3.469 -26.17,0 -34.75,-11.59 -34.75,-29.672 0,-21.34 11.8,-23.848 35.93,-28.059 27.56,-4.859 47.5,-10.648 47.5,-43.801 0,-32.687 -22.48,-43.57 -50.97,-43.57 -15.77,0 -33.85,2.293 -43.36,6.262 z m -59.12,149.519 6.5,0 c 2.3,0 3.01,-0.929 3.01,-3.718 l -0.25,-95.043 c 0,-9.969 -0.68,-18.77 -3.93,-27.129 -8.33,-20.879 -26.88,-29.418 -50.05,-29.418 -23.88,0 -42.21,8.808 -49.61,29.199 -3.01,8.359 -3.94,17.379 -3.94,27.348 l 0,95.043 c 0,3.007 0.93,3.718 3.47,3.718 l 6.47,0 c 2.33,0 3.04,-0.929 3.04,-3.718 l 0,-95.723 c 0,-27.598 12.98,-44.289 40.57,-44.289 26.64,0 41.26,14.621 41.26,44.289 l 0,95.723 c 0,3.007 0.93,3.718 3.46,3.718 z M 5038.66,302.512 c -44.96,0 -62.59,25.699 -62.59,76.957 0,41.953 10.2,79.929 57.48,79.929 9.26,0 29.67,-1.578 40.8,-6 1.64,-0.718 1.64,-2.078 1.39,-3.476 l -0.94,-3.711 c -0.21,-1.172 -0.45,-2.539 -2.99,-2.332 -11.6,1.43 -24.13,3.5 -38.71,3.5 -38.26,0 -43.12,-33.598 -43.12,-68.16 0,-34.778 9.51,-65.379 50.29,-65.379 8.34,0 19.7,2.57 27.13,5.359 l 0,52.61 -21.79,0 c -2.8,0 -3.47,0.933 -3.47,3.472 l 0,5.789 c 0,2.328 0.67,3.039 3.47,3.039 l 31.74,0 c 2.79,0 3.71,-1.168 3.71,-3.5 l 0.25,-65.839 c 0,-4.149 -1.17,-5.79 -5.57,-7.161 -12.05,-3.488 -24.34,-5.097 -37.08,-5.097 z m -123.18,155.308 6.5,0 c 2.33,0 3.01,-0.929 3.01,-3.718 l -0.22,-95.043 c 0,-9.969 -0.71,-18.77 -3.96,-27.129 -8.33,-20.879 -26.88,-29.418 -50.05,-29.418 -23.88,0 -42.19,8.808 -49.61,29.199 -3.01,8.359 -3.93,17.379 -3.93,27.348 l 0,95.043 c 0,3.007 0.92,3.718 3.46,3.718 l 6.51,0 c 2.32,0 3.01,-0.929 3.01,-3.718 l 0,-95.723 c 0,-27.598 12.96,-44.289 40.56,-44.289 26.66,0 41.25,14.621 41.25,44.289 l 0,95.723 c 0,3.007 0.93,3.718 3.47,3.718 z M 4727.2,423.012 c -5.79,18.578 -4.41,14.859 -6.48,22.73 l -0.47,0 c -2.07,-7.871 -0.92,-4.152 -6.71,-22.453 l -20.41,-65.16 54.48,0 -20.41,64.883 z m 39.64,-118.891 c -2.08,0 -2.79,0.711 -3.26,2.32 l -12.26,40.098 -61.91,0 -12.51,-39.168 c -0.92,-2.762 -2.08,-3.25 -4.61,-3.25 l -6.51,0 c -1.85,0 -2.32,0.711 -1.61,2.777 l 47.72,147.422 c 0.72,2.321 1.4,3.5 3.73,3.5 l 9.74,0 c 2.55,0 3.48,-1.64 3.94,-3.5 l 48.22,-147.879 c 0.46,-1.179 0.21,-2.32 -1.17,-2.32 l -9.51,0 z m -214.76,-2.082 c -8.12,0 -9.04,4.652 -9.04,9.723 0,5.578 1.64,9.519 9.04,9.519 7.65,0 9.04,-3.722 9.04,-9.519 0,-5.321 -1.39,-9.723 -9.04,-9.723 z m -78.88,137.691 -67.45,-80.671 67.45,0 0,80.671 z m 32.46,-92.511 -19.94,0 0,-40.321 c 0,-1.847 -0.47,-2.777 -2.55,-2.777 l -8.1,0 c -1.18,0 -1.87,0.711 -1.87,2.32 l 0,40.778 -79.03,0 c -1.64,0 -2.32,0.722 -2.32,1.871 l 0,7.859 c 0,2.352 0.46,3.961 2.32,6.293 l 76.71,92.008 c 1.62,1.859 2.32,2.57 4.86,2.57 l 8.36,0 c 1.15,0 1.62,-0.929 1.62,-1.871 l 0,-96.89 19.48,0 c 1.83,0 2.76,-0.469 2.76,-2.539 l 0,-7.43 c 0,-1.149 -0.68,-1.871 -2.3,-1.871 z m -144.82,-41.028 c 0,-1.359 -0.68,-2.07 -2.54,-2.07 l -76.96,0 c -1.39,0 -2.32,0.711 -2.32,2.07 l 0,7.899 c 0,1.609 0.71,2.101 2.32,2.101 l 31.53,0 0,124.911 -27.81,0 c -1.64,0 -2.33,0.488 -2.33,2.097 l 0,3.692 c 0,1.418 0.22,2.351 1.86,2.781 l 24.1,6.969 c 2.07,0.679 4.64,1.179 6.96,1.179 l 7.65,0 c 2.54,0 2.76,-1.179 2.76,-2.789 l 0,-138.84 32.24,0 c 1.61,0 2.54,-0.492 2.54,-2.101 l 0,-7.899 z m -258.3,76.059 0,7.648 c 0,1.852 0.93,2.293 2.78,2.293 l 60.49,0 c 1.86,0 2.78,-0.441 2.78,-2.293 l 0,-7.648 c 0,-1.18 -0.71,-1.852 -2.32,-1.852 l -61.41,0 c -1.64,0 -2.32,0.672 -2.32,1.852 z m -113.03,-80.211 c -8.1,0 -9.04,4.652 -9.04,9.723 0,5.578 1.64,9.519 9.04,9.519 7.66,0 9.04,-3.722 9.04,-9.519 0,-5.321 -1.38,-9.723 -9.04,-9.723 z m -57.56,2.293 -93.89,0 c -2.08,0 -2.3,0.719 -2.3,2.109 l 0,8.821 c 0,3.218 0.69,4.148 1.83,5.297 20.41,19.511 40.57,38.961 62.13,61.191 10.21,10.691 18.3,21.102 18.3,35.469 0,20.652 -5.08,30.16 -36.86,30.16 -14.36,0 -26.87,-2.07 -38.46,-3.5 -2.54,-0.207 -3,1.16 -3.25,2.082 l -0.68,3.961 c -0.25,1.398 -0.25,2.758 1.39,3.476 11.12,4.422 31.74,6 40.79,6 39.64,0 50.29,-14.796 50.29,-39.148 0,-20.41 -5.79,-29.418 -20.87,-45.43 -18.98,-19.699 -29.67,-29.89 -59.77,-58.629 l 80.88,0 c 1.84,0 2.77,-0.492 2.77,-2.562 l 0,-7.438 c 0,-1.14 -0.69,-1.859 -2.3,-1.859 z m -143.04,1.859 c 0,-1.359 -0.71,-2.07 -2.57,-2.07 l -76.93,0 c -1.39,0 -2.33,0.711 -2.33,2.07 l 0,7.899 c 0,1.609 0.69,2.101 2.33,2.101 l 31.5,0 0,124.911 -27.81,0 c -1.62,0 -2.32,0.488 -2.32,2.097 l 0,3.692 c 0,1.418 0.24,2.351 1.85,2.781 l 24.13,6.969 c 2.07,0.679 4.61,1.179 6.94,1.179 l 7.65,0 c 2.57,0 2.78,-1.179 2.78,-2.789 l 0,-138.84 32.21,0 c 1.64,0 2.57,-0.492 2.57,-2.101 l 0,-7.899"
         style="fill:#f14d3e;fill-opacity:1;fill-rule:nonzero;stroke:none"
         id="path14"
         inkscape:connector-curvature="0" /><path
         d="m 3800.9,126.602 0,-4.852 c 0,-2.309 -0.63,-3.129 -3.14,-3.129 l -53.25,0 -0.21,-63.9804 c 0,-2.539 -0.63,-3.1797 -2.74,-3.1797 l -5.68,0 c -2.32,0 -3.36,0.6407 -3.36,3.1797 l 0,133.6214 c 0,1.879 0.63,2.718 3.14,2.718 l 69.45,0 c 2.54,0 3.17,-0.839 3.17,-2.718 l 0,-5.27 c 0,-2.301 -0.63,-2.953 -3.17,-2.953 l -60.6,0 0,-50.719 53.25,0 c 2.51,0 3.14,-0.621 3.14,-2.718"
         style="fill:#4f4c4c;fill-opacity:1;fill-rule:nonzero;stroke:none"
         id="path16"
         inkscape:connector-curvature="0" /><path
         d="m 3950.8,51.4609 -73.65,0 c -2.51,0 -3.15,0.6407 -3.15,2.7383 l 0,133.4218 c 0,2.738 0.82,3.359 3.15,3.359 l 6.12,0 c 1.89,0 2.74,-0.839 2.74,-3.359 l 0,-125.2187 64.79,0 c 2.54,0 3.17,-0.8203 3.17,-3.1523 l 0,-5.0508 c 0,-2.0976 -0.63,-2.7383 -3.17,-2.7383"
         style="fill:#4f4c4c;fill-opacity:1;fill-rule:nonzero;stroke:none"
         id="path18"
         inkscape:connector-curvature="0" /><path
         d="m 4101.99,190.98 5.9,0 c 2.1,0 2.74,-0.839 2.74,-3.359 l -0.23,-86.269 c 0,-9.0707 -0.62,-17.0512 -3.57,-24.6411 C 4099.26,57.7813 4082.4,50 4061.37,50 c -21.67,0 -38.3,7.9922 -45.02,26.4922 -2.74,7.5976 -3.59,15.7891 -3.59,24.8598 l 0,86.269 c 0,2.738 0.85,3.359 3.15,3.359 l 5.9,0 c 2.1,0 2.73,-0.839 2.73,-3.359 l 0,-86.922 c 0,-25.0271 11.77,-40.199 36.83,-40.199 24.2,0 37.45,13.2617 37.45,40.199 l 0,86.922 c 0,2.738 0.85,3.359 3.17,3.359"
         style="fill:#4f4c4c;fill-opacity:1;fill-rule:nonzero;stroke:none"
         id="path20"
         inkscape:connector-curvature="0" /><path
         d="m 4237.79,50 c -40.84,0 -56.82,23.3516 -56.82,69.879 0,38.082 9.26,72.582 52.18,72.582 8.44,0 26.94,-1.481 37.05,-5.461 1.47,-0.629 1.47,-1.891 1.26,-3.148 l -0.83,-3.383 c -0.22,-1.039 -0.43,-2.297 -2.76,-2.098 -10.52,1.258 -21.88,3.141 -35.13,3.141 -34.72,0 -39.15,-30.492 -39.15,-61.852 0,-31.5897 8.64,-59.3397 45.68,-59.3397 7.57,0 17.9,2.2891 24.62,4.8008 l 0,47.8199 -19.79,0 c -2.51,0 -3.16,0.821 -3.16,3.141 l 0,5.258 c 0,2.082 0.65,2.742 3.16,2.742 l 28.83,0 c 2.54,0 3.39,-1.07 3.39,-3.172 l 0.18,-59.7694 c 0,-3.7695 -1.03,-5.2422 -5.04,-6.5 C 4260.53,51.4609 4249.38,50 4237.79,50"
         style="fill:#4f4c4c;fill-opacity:1;fill-rule:nonzero;stroke:none"
         id="path22"
         inkscape:connector-curvature="0" /><path
         d="m 4388.35,180.039 -28.41,0 0,-59.969 31.36,0 c 6.94,0 28.6,3.582 28.6,30.95 0,20.191 -13.02,29.23 -31.55,29.019 z m 3.14,-70.051 -31.55,0 0,-55.3474 c 0,-2.539 -0.85,-3.1797 -2.95,-3.1797 l -5.9,0 c -2.11,0 -2.93,0.6407 -2.93,3.1797 l 0,133.6214 c 0,1.879 0.63,2.718 3.15,2.718 l 39.56,0 c 23.35,0 41.46,-13.238 41.46,-39.55 0,-20 -11.79,-41.442 -40.84,-41.442"
         style="fill:#4f4c4c;fill-opacity:1;fill-rule:nonzero;stroke:none"
         id="path24"
         inkscape:connector-curvature="0" /><path
         d="m 4574.24,51.4609 -73.65,0 c -2.52,0 -3.15,0.6407 -3.15,2.7383 l 0,133.4218 c 0,2.738 0.82,3.359 3.15,3.359 l 6.11,0 c 1.88,0 2.73,-0.839 2.73,-3.359 l 0,-125.2187 64.81,0 c 2.54,0 3.16,-0.8203 3.16,-3.1523 l 0,-5.0508 c 0,-2.0976 -0.62,-2.7383 -3.16,-2.7383"
         style="fill:#4f4c4c;fill-opacity:1;fill-rule:nonzero;stroke:none"
         id="path26"
         inkscape:connector-curvature="0" /><path
         d="m 4693.43,159.43 c -5.28,16.84 -3.99,13.449 -5.9,20.609 l -0.41,0 c -1.89,-7.16 -0.85,-3.769 -6.09,-20.379 l -18.53,-59.16 49.45,0 -18.52,58.93 z M 4729.4,51.4609 c -1.88,0 -2.51,0.6407 -2.94,2.1094 l -11.15,36.418 -56.2,0 -11.36,-35.5664 c -0.82,-2.5235 -1.88,-2.961 -4.21,-2.961 l -5.87,0 c -1.69,0 -2.1,0.6407 -1.48,2.5196 l 43.36,133.8715 c 0.63,2.07 1.26,3.128 3.36,3.128 l 8.83,0 c 2.32,0 3.16,-1.441 3.57,-3.128 L 4739.1,53.5703 c 0.41,-1.0586 0.2,-2.1094 -1.05,-2.1094 l -8.65,0"
         style="fill:#4f4c4c;fill-opacity:1;fill-rule:nonzero;stroke:none"
         id="path28"
         inkscape:connector-curvature="0" /><path
         d="m 4779.98,183.199 0,5.063 c 0,1.879 0.63,2.718 3.14,2.718 l 84.83,0 c 2.51,0 3.13,-0.839 3.13,-2.718 l 0,-5.063 c 0,-2.289 -0.62,-3.16 -3.13,-3.16 l -36.43,0 -0.18,-125.3984 c 0,-2.539 -0.66,-3.1797 -2.77,-3.1797 l -5.86,0 c -2.33,0 -3.18,0.6407 -3.18,3.1797 l 0,125.3984 -36.41,0 c -2.51,0 -3.14,0.871 -3.14,3.16"
         style="fill:#4f4c4c;fill-opacity:1;fill-rule:nonzero;stroke:none"
         id="path30"
         inkscape:connector-curvature="0" /><path
         d="m 5011.53,51.4609 -79.33,0 c -2.54,0 -2.95,0.8477 -2.95,2.961 l 0,3.7695 c 0,1.8984 0.22,3.8008 1.88,6.3399 l 69.67,115.5077 -64.61,0 c -2.73,0 -3.14,0.871 -3.14,3.16 l 0,5.063 c 0,1.879 0.62,2.718 3.14,2.718 l 75.34,0 c 1.26,0 2.52,-0.621 2.52,-2.101 l 0,-5.469 c 0,-1.898 -0.63,-3.371 -1.67,-5.039 l -69.03,-115.9687 68.18,0 c 2.52,0 3.18,-0.6132 3.18,-2.7421 l 0,-5.0196 c 0,-2.332 -0.66,-3.1797 -3.18,-3.1797"
         style="fill:#4f4c4c;fill-opacity:1;fill-rule:nonzero;stroke:none"
         id="path32"
         inkscape:connector-curvature="0" /><path
         d="m 5209.28,118.809 -36.83,0 0,-56.8168 36.83,0 c 22.51,0 28.82,13.4687 28.82,28.207 0,14.7028 -8.82,28.6098 -28.82,28.6098 z m -4.21,61.23 -32.62,0 0,-51.148 32.62,0 c 19.56,0 28.82,10.769 28.82,25.898 0,14.75 -9.26,25.25 -28.82,25.25 z m 9.45,-128.5781 -49.67,0 c -3.77,0 -4.39,1.0508 -4.39,3.1797 l 0,132.9804 c 0,1.918 0.62,3.359 3.36,3.359 l 43.54,0 c 26.53,0 39.15,-14.281 39.15,-34.71 0,-9.899 -3.14,-25.032 -19.34,-31.778 18.3,-4.832 23.55,-22.922 23.55,-35.7615 0,-22.9492 -16.42,-37.2696 -36.2,-37.2696"
         style="fill:#4f4c4c;fill-opacity:1;fill-rule:nonzero;stroke:none"
         id="path34"
         inkscape:connector-curvature="0" /><path
         d="m 5366.75,159.43 c -5.28,16.84 -4,13.449 -5.91,20.609 l -0.41,0 c -1.89,-7.16 -0.84,-3.769 -6.08,-20.379 l -18.53,-59.16 49.44,0 -18.51,58.93 z m 35.97,-107.9691 c -1.88,0 -2.51,0.6407 -2.94,2.1094 l -11.15,36.418 -56.2,0 -11.37,-35.5664 c -0.82,-2.5235 -1.88,-2.961 -4.2,-2.961 l -5.87,0 c -1.69,0 -2.1,0.6407 -1.48,2.5196 l 43.36,133.8715 c 0.63,2.07 1.25,3.128 3.36,3.128 l 8.82,0 c 2.32,0 3.17,-1.441 3.58,-3.128 l 43.79,-134.2817 c 0.41,-1.0586 0.2,-2.1094 -1.06,-2.1094 l -8.64,0"
         style="fill:#4f4c4c;fill-opacity:1;fill-rule:nonzero;stroke:none"
         id="path36"
         inkscape:connector-curvature="0" /><path
         d="m 5520.25,180.039 -30.1,0 0,-117.6367 28.4,0 c 11.81,0 43.99,-1.6718 43.99,57.4767 0,60.371 -28.82,60.16 -42.29,60.16 z m 0,-128.5781 -38.08,0 c -3.58,0 -4.21,1.0508 -4.21,3.1797 l 0,132.9804 c 0,1.918 0.63,3.359 3.36,3.359 l 38.93,0 c 43.77,0 54.92,-30.07 54.92,-69.441 0,-39.7499 -10.52,-70.0781 -54.92,-70.0781"
         style="fill:#4f4c4c;fill-opacity:1;fill-rule:nonzero;stroke:none"
         id="path38"
         inkscape:connector-curvature="0" /><path
         d="m 5723.64,55.2305 c -1.88,0.8789 -2.1,2.1406 -1.69,3.3984 l 0.63,3.9805 c 0.22,1.2617 1.06,1.4804 2.11,1.2617 12.83,-1.4688 33.05,-3.1406 38.51,-3.1406 21.69,0 34.32,9.039 34.32,25.8711 0,21.4684 -7.38,26.9294 -31.78,31.1404 -26.11,4.418 -43.98,9.477 -43.98,36.227 0,24.582 15.35,38.301 43.77,38.301 8.19,0 26.72,-1.469 36.82,-5.489 1.48,-0.633 1.48,-1.883 1.26,-3.14 l -0.85,-3.391 c 0,-1.031 -0.41,-2.289 -2.73,-2.078 -10.52,1.258 -21.89,3.148 -34.94,3.148 -23.77,0 -31.55,-10.519 -31.55,-26.941 0,-19.367 10.74,-21.668 32.61,-25.488 25.06,-4.399 43.15,-9.672 43.15,-39.7504 0,-29.6992 -20.41,-39.582 -46.31,-39.582 -14.29,0 -30.71,2.1328 -39.35,5.6719"
         style="fill:#4f4c4c;fill-opacity:1;fill-rule:nonzero;stroke:none"
         id="path40"
         inkscape:connector-curvature="0" /><path
         d="m 5925.34,159.43 c -5.26,16.84 -3.98,13.449 -5.9,20.609 l -0.41,0 c -1.88,-7.16 -0.85,-3.769 -6.09,-20.379 l -18.52,-59.16 49.45,0 -18.53,58.93 z m 35.99,-107.9691 c -1.89,0 -2.52,0.6407 -2.95,2.1094 l -11.15,36.418 -56.19,0 -11.37,-35.5664 c -0.82,-2.5235 -1.89,-2.961 -4.21,-2.961 l -5.87,0 c -1.7,0 -2.11,0.6407 -1.47,2.5196 l 43.34,133.8715 c 0.64,2.07 1.26,3.128 3.36,3.128 l 8.83,0 c 2.33,0 3.17,-1.441 3.58,-3.128 l 43.8,-134.2817 c 0.41,-1.0586 0.18,-2.1094 -1.07,-2.1094 l -8.63,0"
         style="fill:#4f4c4c;fill-opacity:1;fill-rule:nonzero;stroke:none"
         id="path42"
         inkscape:connector-curvature="0" /><path
         d="m 6120.29,190.98 5.91,0 c 2.1,0 2.73,-0.839 2.73,-3.359 l -0.22,-86.269 c 0,-9.0707 -0.62,-17.0512 -3.57,-24.6411 C 6117.57,57.7813 6100.71,50 6079.68,50 c -21.67,0 -38.31,7.9922 -45.03,26.4922 -2.74,7.5976 -3.58,15.7891 -3.58,24.8598 l 0,86.269 c 0,2.738 0.84,3.359 3.15,3.359 l 5.9,0 c 2.1,0 2.73,-0.839 2.73,-3.359 l 0,-86.922 c 0,-25.0271 11.77,-40.199 36.83,-40.199 24.2,0 37.45,13.2617 37.45,40.199 l 0,86.922 c 0,2.738 0.85,3.359 3.16,3.359"
         style="fill:#4f4c4c;fill-opacity:1;fill-rule:nonzero;stroke:none"
         id="path44"
         inkscape:connector-curvature="0" /><path
         d="m 6279.46,51.4609 -73.65,0 c -2.52,0 -3.14,0.6407 -3.14,2.7383 l 0,133.4218 c 0,2.738 0.82,3.359 3.14,3.359 l 6.11,0 c 1.89,0 2.74,-0.839 2.74,-3.359 l 0,-125.2187 64.8,0 c 2.54,0 3.17,-0.8203 3.17,-3.1523 l 0,-5.0508 c 0,-2.0976 -0.63,-2.7383 -3.17,-2.7383"
         style="fill:#4f4c4c;fill-opacity:1;fill-rule:nonzero;stroke:none"
         id="path46"
         inkscape:connector-curvature="0" /><path
         d="m 6395.9,50 c -40.84,0 -56.83,23.3516 -56.83,69.879 0,38.082 9.26,72.582 52.18,72.582 8.42,0 26.94,-1.481 37.05,-5.461 1.48,-0.629 1.48,-1.891 1.25,-3.148 l -0.82,-3.383 c -0.21,-1.039 -0.43,-2.297 -2.75,-2.098 -10.52,1.258 -21.89,3.141 -35.14,3.141 -34.72,0 -39.15,-30.492 -39.15,-61.852 0,-31.5897 8.63,-59.3397 45.68,-59.3397 7.57,0 17.89,2.2891 24.61,4.8008 l 0,47.8199 -19.77,0 c -2.54,0 -3.17,0.821 -3.17,3.141 l 0,5.258 c 0,2.082 0.63,2.742 3.17,2.742 l 28.82,0 c 2.54,0 3.38,-1.07 3.38,-3.172 l 0.2,-59.7694 c 0,-3.7695 -1.04,-5.2422 -5.06,-6.5 C 6418.62,51.4609 6407.48,50 6395.9,50"
         style="fill:#4f4c4c;fill-opacity:1;fill-rule:nonzero;stroke:none"
         id="path48"
         inkscape:connector-curvature="0" /><path
         d="m 6555.71,159.43 c -5.27,16.84 -3.98,13.449 -5.9,20.609 l -0.41,0 c -1.88,-7.16 -0.85,-3.769 -6.09,-20.379 l -18.52,-59.16 49.45,0 -18.53,58.93 z M 6591.7,51.4609 c -1.9,0 -2.52,0.6407 -2.95,2.1094 l -11.15,36.418 -56.19,0 -11.37,-35.5664 c -0.82,-2.5235 -1.89,-2.961 -4.21,-2.961 l -5.87,0 c -1.7,0 -2.11,0.6407 -1.48,2.5196 l 43.36,133.8715 c 0.62,2.07 1.26,3.128 3.36,3.128 l 8.82,0 c 2.33,0 3.17,-1.441 3.58,-3.128 l 43.8,-134.2817 c 0.41,-1.0586 0.18,-2.1094 -1.07,-2.1094 l -8.63,0"
         style="fill:#4f4c4c;fill-opacity:1;fill-rule:nonzero;stroke:none"
         id="path50"
         inkscape:connector-curvature="0" /><path
         d="m 6750.66,190.98 5.91,0 c 2.1,0 2.73,-0.839 2.73,-3.359 l -0.22,-86.269 c 0,-9.0707 -0.62,-17.0512 -3.57,-24.6411 C 6747.94,57.7813 6731.07,50 6710.04,50 c -21.66,0 -38.3,7.9922 -45.02,26.4922 -2.73,7.5976 -3.57,15.7891 -3.57,24.8598 l 0,86.269 c 0,2.738 0.84,3.359 3.13,3.359 l 5.91,0 c 2.1,0 2.72,-0.839 2.72,-3.359 l 0,-86.922 c 0,-25.0271 11.78,-40.199 36.83,-40.199 24.21,0 37.46,13.2617 37.46,40.199 l 0,86.922 c 0,2.738 0.84,3.359 3.16,3.359"
         style="fill:#4f4c4c;fill-opacity:1;fill-rule:nonzero;stroke:none"
         id="path52"
         inkscape:connector-curvature="0" /><path
         d="m 6923.76,118.621 0,-56.2187 63.13,0 c 2.52,0 3.15,-0.8203 3.15,-3.1523 l 0,-5.0508 c 0,-2.0976 -0.63,-2.7383 -3.15,-2.7383 l -71.98,0 c -2.51,0 -3.14,0.6407 -3.14,2.7383 l 0,133.8598 c 0,1.863 0.63,2.921 3.14,2.921 l 70.51,0 c 2.52,0 3.14,-0.839 3.14,-2.718 l 0,-5.27 c 0,-2.301 -0.62,-2.953 -3.14,-2.953 l -61.66,0 0,-50.719 55.35,0 c 2.51,0 3.15,-0.621 3.15,-2.718 l 0,-4.852 c 0,-2.309 -0.64,-3.129 -3.15,-3.129 l -55.35,0"
         style="fill:#4f4c4c;fill-opacity:1;fill-rule:nonzero;stroke:none"
         id="path54"
         inkscape:connector-curvature="0" /><path
         d="m 7099.13,180.039 -30.11,0 0,-117.6367 28.41,0 c 11.81,0 43.99,-1.6718 43.99,57.4767 0,60.371 -28.82,60.16 -42.29,60.16 z m 0,-128.5781 -38.09,0 c -3.58,0 -4.2,1.0508 -4.2,3.1797 l 0,132.9804 c 0,1.918 0.62,3.359 3.36,3.359 l 38.93,0 c 43.76,0 54.91,-30.07 54.91,-69.441 0,-39.7499 -10.51,-70.0781 -54.91,-70.0781"
         style="fill:#4f4c4c;fill-opacity:1;fill-rule:nonzero;stroke:none"
         id="path56"
         inkscape:connector-curvature="0" /><path
         d="m 7210.34,183.199 0,5.063 c 0,1.879 0.64,2.718 3.18,2.718 l 84.79,0 c 2.52,0 3.15,-0.839 3.15,-2.718 l 0,-5.063 c 0,-2.289 -0.63,-3.16 -3.15,-3.16 l -36.42,0 -0.18,-125.3984 c 0,-2.539 -0.66,-3.1797 -2.76,-3.1797 l -5.87,0 c -2.33,0 -3.18,0.6407 -3.18,3.1797 l 0,125.3984 -36.38,0 c -2.54,0 -3.18,0.871 -3.18,3.16"
         style="fill:#4f4c4c;fill-opacity:1;fill-rule:nonzero;stroke:none"
         id="path58"
         inkscape:connector-curvature="0" /><path
         d="m 7454.53,190.992 5.9,0 c 2.1,0 2.73,-0.851 2.73,-3.371 l -0.22,-86.269 c 0,-9.0707 -0.63,-17.0512 -3.57,-24.6332 C 7451.8,57.7813 7434.94,50 7413.91,50 c -21.67,0 -38.3,7.9922 -45.03,26.4922 -2.73,7.5976 -3.58,15.7891 -3.58,24.8598 l 0,86.269 c 0,2.738 0.85,3.359 3.14,3.359 l 5.91,0.012 c 2.1,0 2.72,-0.851 2.72,-3.371 l 0,-86.922 c 0,-25.0271 11.78,-40.1873 36.84,-40.1873 24.2,0 37.45,13.25 37.45,40.1873 l 0,86.922 c 0,2.738 0.85,3.371 3.17,3.371"
         style="fill:#4f4c4c;fill-opacity:1;fill-rule:nonzero;stroke:none"
         id="path60"
         inkscape:connector-curvature="0" /><path
         d="m 3699.63,1643.17 c 0,15.16 6.31,23.99 25.27,23.99 l 455.96,0 c 15.17,0 24.01,-8.83 24.01,-23.99 l 0,-78.31 c 0,-15.15 -6.31,-22.73 -25.26,-22.73 l -337.24,0 0,-217.26 294.29,0 c 16.42,0 24.01,-7.59 24.01,-22.71 l 0,-78.34 c 0,-16.41 -6.33,-24.01 -25.27,-24.01 l -291.77,0 0,-347.33 c 0,-13.89 -6.32,-24 -24.01,-24 l -94.72,0 c -17.68,0 -25.27,7.571 -25.27,24 l 0,790.69"
         style="fill:#f14d3e;fill-opacity:1;fill-rule:nonzero;stroke:none"
         id="path62"
         inkscape:connector-curvature="0" /><path
         d="m 4691.27,952.242 361.25,0 c 15.16,0 22.75,-5.031 22.75,-21.472 l 0,-79.551 c 0,-15.168 -6.33,-22.739 -24.01,-22.739 l -477.43,0 c -18.97,0 -25.28,7.571 -25.28,22.739 l 0,790.691 c 0,16.42 7.57,25.25 23.99,25.25 l 94.75,0 c 16.41,0 23.98,-7.57 23.98,-25.25 l 0,-689.668"
         style="fill:#f14d3e;fill-opacity:1;fill-rule:nonzero;stroke:none"
         id="path64"
         inkscape:connector-curvature="0" /><path
         d="m 5499.79,1173.32 -260.19,469.85 c -5.05,11.38 -1.28,22.74 12.63,22.74 l 107.36,0 c 21.46,0 26.52,-5.05 35.35,-21.47 l 102.31,-197.05 72.02,-138.96 7.57,0 75.78,142.75 102.3,189.46 c 8.86,17.69 15.17,25.27 35.38,25.27 l 103.58,0 c 16.41,0 20.21,-10.11 13.87,-22.74 l -266.5,-469.85 0,-320.84 c 0,-13.89 -5.06,-24 -22.73,-24 l -93.48,0 c -17.68,0 -25.25,7.571 -25.25,24 l 0,320.84"
         style="fill:#f14d3e;fill-opacity:1;fill-rule:nonzero;stroke:none"
         id="path66"
         inkscape:connector-curvature="0" /><path
         d="m 6251.48,1641.91 c 0,16.42 6.31,25.25 23.99,25.25 l 96,0 c 17.68,0 23.99,-10.09 23.99,-25.25 l 0,-789.43 c 0,-13.89 -6.31,-24 -23.99,-24 l -96,0 c -17.68,0 -23.99,7.571 -23.99,24 l 0,789.43"
         style="fill:#f14d3e;fill-opacity:1;fill-rule:nonzero;stroke:none"
         id="path68"
         inkscape:connector-curvature="0" /><path
         d="m 6942.45,1405.7 -3.8,0 0,-553.22 c 0,-15.171 -6.31,-24 -23.98,-24 l -90.95,0 c -17.68,0 -25.27,7.571 -25.27,24 l 0,790.69 c 0,13.9 7.59,22.74 24.01,22.74 l 71.99,0 c 37.89,0 44.2,-18.95 60.62,-42.94 l 159.17,-247.57 181.89,-284.21 3.77,0 0,549.45 c 0,16.43 5.05,25.27 24.01,25.27 l 90.95,0 c 17.68,0 23.99,-7.58 23.99,-25.27 l 0,-789.421 c 0,-15.168 -6.31,-22.727 -23.99,-22.727 l -72.02,-0.012 c -22.72,0 -31.58,7.571 -41.69,24 l -274.06,418.09 -84.64,135.13"
         style="fill:#f14d3e;fill-opacity:1;fill-rule:nonzero;stroke:none"
         id="path70"
         inkscape:connector-curvature="0" /><path
         d="m 6681.74,2033.86 0,14.78 c 0,3.58 1.8,4.48 5.38,4.48 l 116.87,0 c 3.59,0 5.36,-0.9 5.36,-4.48 l 0,-14.78 c 0,-2.23 -1.34,-3.57 -4.48,-3.57 l -118.65,0 c -3.14,0 -4.48,1.34 -4.48,3.57 z m -244.84,-1.79 c -17.46,0 -48.36,-2.24 -93.57,-7.61 l 0,-10.29 c 0,-66.28 -0.46,-113.3 77.02,-113.3 32.67,0 75.68,9.4 75.68,62.24 0,43 -12.11,68.96 -59.13,68.96 z m -18.36,-153.14 c -101.19,0 -101.19,56.42 -101.19,141.06 0,78.8 10.74,162.99 111.06,162.99 17.45,0 52.39,-3.13 73.87,-11.64 3.14,-1.36 3.14,-4.04 2.7,-6.72 l -1.34,-7.16 c -0.46,-2.24 -1.36,-4.93 -6.28,-4.48 -22.37,2.67 -42.1,6.72 -69.86,6.72 -69.38,0 -81.92,-52.4 -83.73,-111.51 51.5,5.82 70.76,7.16 99.41,7.16 53.28,0 78.82,-27.31 78.82,-91.34 0,-61.8 -45.24,-85.08 -103.46,-85.08 z m -148.56,8.07 c 0,-2.7 -1.34,-4.04 -4.92,-4.04 l -148.67,0 c -2.68,0 -4.48,1.34 -4.48,4.04 l 0,15.21 c 0,3.14 1.34,4.03 4.48,4.03 l 60.9,0 0,241.35 -53.75,0 c -3.11,0 -4.45,0.9 -4.45,4.04 l 0,7.17 c 0,2.67 0.44,4.48 3.59,5.36 l 46.55,13.45 c 4.04,1.33 8.95,2.24 13.44,2.24 l 14.78,0 c 4.91,0 5.38,-2.24 5.38,-5.39 l 0,-268.22 62.23,0 c 3.14,0 4.92,-0.89 4.92,-4.03 l 0,-15.21 z m -430.39,146.86 0,14.78 c 0,3.58 1.78,4.48 5.38,4.48 l 116.85,0 c 3.6,0 5.38,-0.9 5.38,-4.48 l 0,-14.78 c 0,-2.23 -1.34,-3.57 -4.49,-3.57 l -118.64,0 c -3.14,0 -4.48,1.34 -4.48,3.57"
         style="fill:#f14d3e;fill-opacity:1;fill-rule:nonzero;stroke:none"
         id="path72"
         inkscape:connector-curvature="0" /><g
         id="g74"><g
           id="g76"
           clip-path="url(#clipPath78)"><path
             d="M 1306.49,1380.98 C 1032.59,1368.5 666.379,1378.93 564.473,1235 514.668,1164.63 646.895,930.582 756.664,782.512 851.762,654.289 979.293,565.492 1138.62,556.25 c 214.56,-12.43 435.99,106.949 613.07,228.691 147.15,101.129 414.55,254.619 389.25,403.839 -22.01,129.87 -216.31,181.26 -347.91,187.34 -128.1,5.93 -334.99,11.77 -486.54,4.86"
             style="fill:#f14d3e;fill-opacity:1;fill-rule:nonzero;stroke:none"
             id="path82"
             inkscape:connector-curvature="0" /><path
             d="m 898.262,1361.57 -141.407,-113.46 -181.234,-154.46 37.098,-85.72 45.597,75.99 150.86,148.4 173.937,124.07 19.757,13.99 -104.608,-8.81"
             style="fill:#ffffff;fill-opacity:1;fill-rule:nonzero;stroke:none"
             id="path84"
             inkscape:connector-curvature="0" /><path
             d="m 1285,1705.14 c 0,0 -740.391,614.42 -1089.449,903.46 -65.949,54.58 -161.2541,51.92 -161.6955,0 -0.6758,-77.93 -9.7032,-166.92 26.039,-190.17 116.0435,-75.42 412.6215,-246.68 558.8355,-332.8 0,0 14.372,-28.47 6.883,-39.55 -6.226,-9.24 -23.031,-12.42 -32.675,-6.89 -168.883,96.35 -500.5864,283.83 -500.5864,283.83 0,0 46.2934,-213.89 103.1994,-239.12 C 577.59,1914.54 1215.66,1645.24 1215.66,1645.24 l 69.34,59.9 z"
             style="fill:none;stroke:#f14d3e;stroke-width:36.19979858;stroke-linecap:butt;stroke-linejoin:miter;stroke-miterlimit:4;stroke-dasharray:none;stroke-opacity:1"
             id="path86"
             inkscape:connector-curvature="0" /><path
             d="m 1249.42,1686.44 c 0,0 -335.283,226.1 -497.018,325.69 -13.793,8.51 -38.711,12.81 -48.652,0 -8.965,-11.59 -1.586,-34.99 10.953,-42.58 201.699,-121.8 518.907,-297.71 518.907,-297.71 l 15.81,14.6 z"
             style="fill:none;stroke:#f14d3e;stroke-width:36.19979858;stroke-linecap:butt;stroke-linejoin:miter;stroke-miterlimit:4;stroke-dasharray:none;stroke-opacity:1"
             id="path88"
             inkscape:connector-curvature="0" /><path
             d="m 1465.52,1612.08 c 0,0 829.45,212.19 1209.71,218.95 47.1,0.85 100.89,-43.22 85.16,-87.58 -19.73,-55.71 -30.39,-121.08 -68.11,-121.65 -211.76,-3.13 -341.71,2.35 -535.22,-2.43 0,0 -21.96,-5.42 -24.32,-14.6 -2.81,-10.92 5.77,-29.04 17,-29.18 186.95,-2.46 503.61,-9.74 503.61,-9.74 0,0 -59.04,-59.42 -85.16,-82.72 -26.66,-23.77 -88.46,-63.59 -124.05,-60.81 -166.33,12.97 -299.4,45.29 -469.55,72.98 -168.83,27.47 -518.16,85.13 -518.16,85.13 l 9.09,31.65 z"
             style="fill:none;stroke:#f14d3e;stroke-width:36.19979858;stroke-linecap:butt;stroke-linejoin:miter;stroke-miterlimit:4;stroke-dasharray:none;stroke-opacity:1"
             id="path90"
             inkscape:connector-curvature="0" /><path
             d="m 1476.91,1613.47 c 0,0 343.98,8.91 498.23,10.94 15.74,0.2 37.65,-10.17 39.59,-25.81 1.39,-11.67 -12.35,-25.86 -24.1,-25.81 -157.74,0.71 -512.9,16.09 -512.9,16.09 l -0.82,24.59 z"
             style="fill:none;stroke:#f14d3e;stroke-width:36.19979858;stroke-linecap:butt;stroke-linejoin:miter;stroke-miterlimit:4;stroke-dasharray:none;stroke-opacity:1"
             id="path92"
             inkscape:connector-curvature="0" /><path
             d="m 1290.24,1811.44 c 4.81,33.58 57.51,43.81 91.22,40.15 37.49,-4.09 99.58,-28.75 92.04,-65.7 -6.88,-33.58 -78.32,-50.18 -115.15,-43.8 -33.91,5.91 -73,35.29 -68.11,69.35"
             style="fill:#f14d3e;fill-opacity:1;fill-rule:nonzero;stroke:none"
             id="path94"
             inkscape:connector-curvature="0" /><path
             d="m 1464.48,1749.34 c -0.27,46.8 48.99,53.18 82.84,55.45 37.59,2.54 86.9,-12.17 84.96,-49.83 -1.15,-22.96 -16.86,-61.88 -88.62,-61.99 -34.43,-0.08 -78.98,21.97 -79.18,56.37"
             style="fill:#f14d3e;fill-opacity:1;fill-rule:nonzero;stroke:none"
             id="path96"
             inkscape:connector-curvature="0" /><path
             d="m 1387.85,1391.45 c 0,0 57.59,64.65 75.29,113.92 9.02,25.01 -21.77,58.8 -21.77,58.8 0,0 -221.26,-34.13 -528.577,-266.28 -101.598,-76.77 -215.355,-152.77 -288.848,-256.78 -27.644,-39.14 -26.523,-95.559 -58.379,-131.38 -30.707,-34.441 -81.113,-96.648 -119.222,-70.531 -40.68,27.891 -44.395,76.551 -13.524,115.02 269.176,280.731 503.825,439.891 806.61,612.381 19.04,9.4 -43.77,25.02 -43.77,46.24 0,17.35 41.01,33.74 82.43,61.13 22.92,15.16 36.17,45.57 65.97,53.21 46.99,12.03 108.38,-12.93 125.29,-58.38 7.1,-19.05 -18.25,-46.24 -18.25,-46.24"
             style="fill:none;stroke:#f14d3e;stroke-width:31.61190033;stroke-linecap:butt;stroke-linejoin:miter;stroke-miterlimit:4;stroke-dasharray:none;stroke-opacity:1"
             id="path98"
             inkscape:connector-curvature="0" /><path
             d="m 225.93,234.211 c -3.797,4.801 -9.289,9.309 -16.5,13.461 -7.184,4.18 -15.383,7.457 -24.563,9.867 -9.203,2.43 -18.465,3.633 -27.812,3.633 -10.379,0 -20.192,-1.551 -29.352,-4.703 -9.207,-3.11 -17.566,-8.328 -25.121,-15.547 -7.5507,-7.231 -13.539,-16.852 -17.9648,-28.813 -4.4102,-11.968 -6.625,-26.39 -6.625,-43.23 l 0,-3.688 c 0,-21.992 4.9492,-40.019 14.7969,-54 9.8749,-14.0426 20.8159,-24.1519 32.8129,-30.3824 12.031,-6.1992 20.828,-9.2891 26.347,-9.2891 21.281,0 37.836,3.5508 49.692,10.6524 11.859,7.1601 20.273,16.0703 25.218,26.7691 4.918,10.668 8.661,24.028 11.227,40.059 2.566,16.012 4.262,25.539 5.105,28.52 l 32.024,4.921 c 0,-5.441 -3.168,-18.851 -9.535,-40.16 C 259.285,120.992 251.582,97.3594 242.484,71.5195 233.391,45.6211 225.41,24.2305 218.496,7.37109 216.039,6.05859 212.953,5.12891 209.184,4.53125 205.438,3.98047 202.027,3.41016 198.965,2.83984 195.879,2.28906 193.363,1.35938 191.395,0 l -2.454,2.46094 27.098,76.42966 c -14.75,-9.1484 -28.551,-15.8398 -41.332,-20.0508 -12.812,-4.1992 -24.918,-6.3007 -36.309,-6.3007 -20.039,0 -37.07,5.7617 -51.1402,17.2617 -14.0859,11.5 -24.7148,24.9883 -31.8984,40.5082 -7.1875,15.523 -11.1602,28.851 -11.8672,40.082 -0.3047,3.8 -0.4649,7.57 -0.4649,11.39 0,14.367 2.4571,27.949 7.375,40.68 4.9571,12.758 12.9375,24.508 23.9883,35.301 11.0352,10.789 25.5821,20.129 43.6564,28.027 18.086,7.922 40.101,13.82 65.976,17.731 1.614,0.222 3.004,0.269 4.153,0.269 9.043,0 20.215,-2.789 33.496,-8.359 13.328,-5.629 24.582,-11.969 33.816,-19.039 l -29.558,-22.18"
             style="fill:#4f4c4c;fill-opacity:1;fill-rule:nonzero;stroke:none"
             id="path100"
             inkscape:connector-curvature="0" /><path
             d="m 389.844,285.969 44.371,7.39 -7.379,-221.8668 c 13.031,0 26.117,0.2695 39.285,0.8476 13.141,0.5704 26.668,2.129 40.598,4.6993 13.906,2.5703 24.258,6.4726 31.062,11.6914 l 2.457,-4.9102 c -0.843,-1.6484 -1.968,-4 -3.414,-7.1094 -1.418,-3.0586 -2.648,-5.6796 -3.687,-7.9218 -1.035,-2.1875 -2.297,-4.7578 -3.774,-7.7071 -1.472,-2.8906 -2.808,-5.1836 -3.929,-6.8515 -12.512,1.4414 -27.731,2.1484 -45.598,2.1484 -5.133,0 -11.609,-0.0586 -19.344,-0.207 -7.758,-0.1719 -15.625,-0.3906 -23.601,-0.6406 -7.922,-0.2422 -16.965,-0.5118 -27.102,-0.8399 -10.082,-0.2695 -17.594,-0.4609 -22.402,-0.4609 1.23,9.1484 2.32,19.039 3.304,29.5898 0.989,10.5899 1.782,21.5507 2.461,32.8907 0.688,11.359 1.172,22.48 1.477,33.379 0.297,10.871 0.465,21.66 0.465,32.351 0,18.598 -0.41,36.278 -1.231,53.051 -0.82,16.828 -2.16,33.656 -4.019,50.477"
             style="fill:#4f4c4c;fill-opacity:1;fill-rule:nonzero;stroke:none"
             id="path102"
             inkscape:connector-curvature="0" /><path
             d="m 797.59,175.059 -34.945,71.472 -43.028,-71.472 c -0.433,-0.43 -0.679,-0.817 -0.679,-1.098 0,-2.34 9.375,-3.539 28.054,-3.539 10.789,0 21.422,0.437 31.938,1.359 10.547,0.93 16.75,2.028 18.66,3.278 m -13.442,105.972 c 3.036,-10.133 8.797,-23.949 17.293,-41.441 8.497,-17.481 18.879,-37.481 31.086,-60.078 12.219,-22.59 24.235,-44.782 36.067,-66.571 11.801,-21.7496 21.277,-39.6988 28.437,-53.7691 -17.89,-3.3008 -30.461,-5.7617 -37.59,-7.3828 -3.718,6.8398 -8.441,16.1328 -14.207,27.7109 -5.793,11.6289 -10.898,21.852 -15.296,30.762 -4.43,8.91 -9.098,17.73 -14.016,26.547 -4.977,8.851 -10.164,17.48 -15.652,25.902 -15,-2.781 -30.954,-4.18 -47.899,-4.18 -10.73,0 -20.762,0.578 -30.074,1.719 -6.723,0 -11.723,-0.98 -15.027,-2.918 -3.278,-1.941 -6.172,-5.113 -8.633,-9.402 -2.485,-4.34 -5.356,-9.258 -8.578,-14.782 -3.141,-4.859 -7.239,-11.199 -12.266,-19.117 -5.023,-7.922 -10.625,-16.4724 -16.719,-25.6521 -6.117,-9.207 -13.469,-19.7578 -22.097,-31.6601 l -29.59,0 -2.676,2.4531 c 0.219,0.2969 10.734,14.8594 31.496,43.7071 20.793,28.769 37.238,51.961 49.313,69.48 12.097,17.481 23.929,35.493 35.46,54 11.555,18.473 22.075,36.723 31.61,54.672 5.383,-1.23 10.297,-1.82 14.781,-1.82 4.453,0 9.399,0.59 14.777,1.82"
             style="fill:#4f4c4c;fill-opacity:1;fill-rule:nonzero;stroke:none"
             id="path104"
             inkscape:connector-curvature="0" /><path
             d="m 1111.05,266.25 -22.18,-14.809 c -10.9,9.071 -22.43,13.59 -34.7,13.59 -7.37,0 -14.28,-1.73 -20.7,-5.23 -6.42,-3.492 -11.53,-8.192 -15.33,-14.09 -3.8,-5.902 -5.71,-12.32 -5.71,-19.211 0,-9.34 3.77,-18.359 11.34,-27.07 7.54,-8.629 19.39,-15.961 35.49,-21.91 16.25,-6.071 28.16,-12.711 35.76,-19.891 7.62,-7.207 11.42,-16.828 11.42,-28.957 0,-1.141 -0.11,-2.953 -0.3,-5.41 0,-5.461 -2.21,-12.242 -6.64,-20.403 -4.43,-8.1793 -10.68,-16.2574 -18.8,-24.2692 -8.11,-8.0312 -17.51,-14.5585 -28.19,-19.5781 -10.71,-5.0312 -21.88,-7.5508 -33.6,-7.5508 -14.59,0 -29.074,4.211 -43.472,12.6289 l 22.214,19.7305 c 9.938,-8.039 22.148,-12.0312 36.518,-12.0312 8.72,0 17.9,1.5312 27.6,4.6211 3.47,2.3789 6.06,5.3789 7.76,9.0195 1.69,3.6601 3.19,8.8711 4.53,15.6523 0.93,4.637 1.4,8.82 1.4,12.617 0,10.821 -3.34,18.903 -9.95,24.293 -6.64,5.379 -18.3,11.688 -35.05,18.93 -16.74,7.269 -30.13,14.09 -40.218,20.598 -3.383,2.839 -6.222,7.32 -8.547,13.39 -2.297,6.059 -3.468,12.781 -3.468,20.16 0,17.211 6.476,30.629 19.425,40.371 3.058,3.118 8.058,6.989 14.998,11.641 6.94,4.699 15.19,8.879 24.75,12.566 9.56,3.711 19.5,5.551 29.89,5.551 15.82,0 30.41,-5 43.76,-14.949"
             style="fill:#4f4c4c;fill-opacity:1;fill-rule:nonzero;stroke:none"
             id="path106"
             inkscape:connector-curvature="0" /><path
             d="m 1236.59,283.52 c 28.55,-1.75 53.65,-2.622 75.31,-2.622 31.78,0 51.01,1.692 57.82,5.071 l 4.91,-4.91 -19.72,-19.727 c -17.76,2.77 -34.51,4.16 -50.22,4.16 -10.08,0 -20.43,-0.57 -31.12,-1.691 -0.54,-6.571 -1.06,-13.332 -1.63,-20.219 -0.55,-6.883 -1.04,-13.602 -1.37,-20.223 -0.36,-6.66 -0.57,-13.14 -0.57,-19.507 0,-8.411 0.38,-16.391 1.09,-23.872 16.45,-1.64 31.15,-2.488 44.07,-2.488 17.76,0 29.37,1.668 34.83,4.949 l 4.92,-4.949 -14.78,-17.242 -64.09,2.461 c -3.01,0 -4.98,-1.852 -5.93,-5.621 -0.99,-3.75 -1.48,-10.281 -1.48,-19.621 0,-3.199 0.09,-10.379 0.33,-21.449 0.19,-11.118 0.3,-20.6216 0.3,-28.6606 0,-12.1289 -0.22,-23.9805 -0.63,-35.5977 -2.76,0.75 -6.01,1.0977 -9.69,1.0977 -5.96,0 -15.09,-1.1992 -27.27,-3.5508 0.3,8.6133 0.98,22.543 2.13,41.6602 1.12,19.1832 2.08,35.4922 2.87,48.9612 0.76,13.41 1.39,27.179 1.94,41.199 0.49,14.012 0.74,28.301 0.74,42.723 0,22.32 -0.93,42.207 -2.76,59.668"
             style="fill:#4f4c4c;fill-opacity:1;fill-rule:nonzero;stroke:none"
             id="path108"
             inkscape:connector-curvature="0" /><path
             d="m 1467.6,285.969 44.37,7.39 -7.41,-221.8668 c 13.06,0 26.15,0.2695 39.29,0.8476 13.14,0.5704 26.69,2.129 40.62,4.6993 13.91,2.5703 24.26,6.4726 31.07,11.6914 l 2.45,-4.9102 c -0.84,-1.6484 -1.96,-4 -3.41,-7.1094 -1.45,-3.0586 -2.68,-5.6796 -3.69,-7.9218 -1.04,-2.1875 -2.3,-4.7578 -3.8,-7.7071 -1.47,-2.8906 -2.78,-5.1836 -3.91,-6.8515 -12.54,1.4414 -27.75,2.1484 -45.59,2.1484 -5.16,0 -11.61,-0.0586 -19.37,-0.207 -7.73,-0.1719 -15.6,-0.3906 -23.58,-0.6406 -7.95,-0.2422 -16.99,-0.5118 -27.1,-0.8399 -10.13,-0.2695 -17.59,-0.4609 -22.43,-0.4609 1.26,9.1484 2.35,19.039 3.31,29.5898 0.98,10.5899 1.8,21.5507 2.46,32.8907 0.68,11.359 1.17,22.48 1.5,33.379 0.28,10.871 0.44,21.66 0.44,32.351 0,18.598 -0.41,36.278 -1.23,53.051 -0.82,16.828 -2.16,33.656 -3.99,50.477"
             style="fill:#4f4c4c;fill-opacity:1;fill-rule:nonzero;stroke:none"
             id="path110"
             inkscape:connector-curvature="0" /><path
             d="m 1814.37,332.969 39.44,0 c 0,-5.957 -1.33,-11.969 -4.01,-18.008 -2.65,-6.09 -6.26,-9.09 -10.79,-9.09 l -34.53,0 9.89,27.098 z m -17.27,0 -9.83,-27.098 -34.54,0 -2.46,4.91 c 3.28,4.918 6.59,12.321 9.84,22.188 6.2,-0.719 11.36,-1.098 15.6,-1.098 1.83,0 4.07,0.109 6.78,0.328 2.65,0.223 5.26,0.383 7.83,0.551 2.57,0.141 4.81,0.219 6.78,0.219 m -78.71,-49.449 c -0.66,-11.5 -0.95,-22.461 -0.95,-32.84 0,-33.571 2.92,-61.739 8.79,-84.5 5.85,-22.758 13.5,-40.52 22.95,-53.301 9.45,-12.789 19.45,-21.7188 29.97,-26.7696 10.55,-5 21.04,-7.5391 31.53,-7.5391 5.95,0 11.63,0.8203 16.99,2.3985 5.41,1.5898 9.23,3.3632 11.5,5.3007 6.15,5.25 12.57,18.5825 19.21,39.9415 6.58,21.34 12.78,46.121 18.55,74.258 5.74,28.14 10.43,55.023 14.01,80.59 13.14,-3.309 23.83,-4.969 32.05,-4.969 -6.15,-35.078 -11.53,-63.16 -16.12,-84.09 -4.57,-20.988 -10.16,-40.141 -16.86,-57.48 -6.66,-17.372 -14.59,-30.981 -23.74,-40.8403 -8.93,-13.4688 -20.22,-22.9805 -33.9,-28.5586 -13.63,-5.6211 -27.84,-8.4023 -42.51,-8.4023 -11.5,0 -22.65,2.7812 -33.44,8.4023 -10.76,5.5781 -20.27,12.4883 -28.49,20.7695 -8.23,8.3086 -14.7,16.6094 -19.42,25.0504 -6.89,15.297 -12.14,31.719 -15.82,49.231 -3.64,17.508 -6.21,35.488 -7.68,53.957 -1.47,18.41 -2.68,39.09 -3.61,61.961 3.2,0 6.75,0.379 10.71,1.09 3.93,0.742 8.72,1.859 14.32,3.379 5.6,1.543 9.59,2.523 11.96,2.961"
             style="fill:#4f4c4c;fill-opacity:1;fill-rule:nonzero;stroke:none"
             id="path112"
             inkscape:connector-curvature="0" /><path
             d="m 2190.53,234.211 c -3.83,4.801 -9.29,9.309 -16.5,13.461 -7.19,4.18 -15.38,7.457 -24.59,9.867 -9.18,2.43 -18.44,3.633 -27.78,3.633 -10.39,0 -20.2,-1.551 -29.37,-4.703 -9.18,-3.11 -17.57,-8.328 -25.11,-15.547 -7.57,-7.231 -13.55,-16.852 -17.98,-28.813 -4.4,-11.968 -6.61,-26.39 -6.61,-43.23 l 0,-3.688 c 0,-21.992 4.95,-40.019 14.81,-54 9.86,-14.0426 20.79,-24.1519 32.81,-30.3824 12.02,-6.1992 20.79,-9.2891 26.34,-9.2891 21.28,0 37.83,3.5508 49.69,10.6524 11.86,7.1601 20.27,16.0703 25.19,26.7691 4.95,10.668 8.69,24.028 11.26,40.059 2.56,16.012 4.26,25.539 5.07,28.52 l 32.05,4.921 c 0,-5.441 -3.17,-18.851 -9.53,-40.16 -6.39,-21.289 -14.1,-44.9216 -23.2,-70.7615 -9.09,-25.8984 -17.07,-47.289 -23.98,-64.14841 -2.46,-1.3125 -5.55,-2.24218 -9.32,-2.83984 -3.74,-0.55078 -7.16,-1.12109 -10.22,-1.69141 C 2160.48,2.28906 2157.96,1.35938 2156,0 l -2.46,2.46094 27.1,76.42966 c -14.76,-9.1484 -28.55,-15.8398 -41.33,-20.0508 -12.82,-4.1992 -24.92,-6.3007 -36.31,-6.3007 -20.03,0 -37.08,5.7617 -51.14,17.2617 -14.08,11.5 -24.7,24.9883 -31.91,40.5082 -7.19,15.523 -11.15,28.851 -11.86,40.082 -0.3,3.8 -0.46,7.57 -0.46,11.39 0,14.367 2.45,27.949 7.4,40.68 4.92,12.758 12.89,24.508 23.95,35.301 11.04,10.789 25.6,20.129 43.69,28.027 18.09,7.922 40.08,13.82 65.95,17.731 1.64,0.222 3.01,0.269 4.15,0.269 9.05,0 20.22,-2.789 33.49,-8.359 13.31,-5.629 24.59,-11.969 33.83,-19.039 l -29.56,-22.18"
             style="fill:#4f4c4c;fill-opacity:1;fill-rule:nonzero;stroke:none"
             id="path114"
             inkscape:connector-curvature="0" /><path
             d="m 2355.43,281.059 c 19.72,-2.289 39.01,-3.387 57.94,-3.387 25.06,0 46.83,1.969 65.32,5.848 l 0,-7.379 -19.72,-14.809 c -5.14,2.027 -15.43,3.059 -30.82,3.059 -4.64,0 -10.54,-0.082 -17.73,-0.289 -7.18,-0.2 -11.55,-0.301 -13.09,-0.301 l -2.45,-83.821 c 6.25,0 11.5,-0.031 15.71,-0.109 4.2,-0.062 8.82,-0.109 13.85,-0.223 12.13,0 23.11,0.524 32.89,1.563 9.83,1 18.58,3.078 26.28,6.141 l 2.49,-4.911 -22.18,-22.191 c -9.27,2.02 -20.88,3.07 -34.84,3.07 -3.9,0 -10,-0.121 -18.19,-0.281 -8.22,-0.219 -14.4,-0.328 -18.47,-0.328 l -4.97,-91.1915 c 6.09,0 13.08,-0.1679 20.98,-0.3789 7.89,-0.3008 14.28,-0.4101 19.12,-0.4101 12.1,0 22.73,0.7304 31.88,2.2383 9.13,1.5 16.37,4.2812 21.72,8.3828 l 4.95,-4.9219 -22.18,-22.1797 c -10.5,1.4219 -22.63,2.1602 -36.37,2.1602 -5.27,0 -12.29,-0.1914 -21.11,-0.5704 -8.86,-0.3476 -18.48,-0.7187 -28.91,-1.039 -10.44,-0.3789 -18.6,-0.5703 -24.56,-0.5703 1.83,15.1015 3.28,29.6914 4.29,43.6797 1.04,14.0388 1.86,29.6918 2.49,46.9878 0.6,17.321 0.89,32.571 0.89,45.704 0,14.07 -0.19,26.687 -0.6,37.89 -0.41,11.199 -0.98,20.93 -1.71,29.238 -0.69,8.25 -1.67,16.071 -2.9,23.329"
             style="fill:#4f4c4c;fill-opacity:1;fill-rule:nonzero;stroke:none"
             id="path116"
             inkscape:connector-curvature="0" /><path
             d="m 2625.62,285.969 44.37,7.39 -7.38,-221.8668 c 13.03,0 26.12,0.2695 39.31,0.8476 13.14,0.5704 26.63,2.129 40.57,4.6993 13.91,2.5703 24.26,6.4726 31.06,11.6914 l 2.46,-4.9102 c -0.84,-1.6484 -1.97,-4 -3.39,-7.1094 -1.44,-3.0586 -2.67,-5.6796 -3.68,-7.9218 -1.04,-2.1875 -2.3,-4.7578 -3.8,-7.7071 -1.48,-2.8906 -2.82,-5.1836 -3.93,-6.8515 -12.52,1.4414 -27.71,2.1484 -45.6,2.1484 -5.14,0 -11.59,-0.0586 -19.35,-0.207 -7.75,-0.1719 -15.62,-0.3906 -23.57,-0.6406 -7.95,-0.2422 -16.99,-0.5118 -27.13,-0.8399 -10.08,-0.2695 -17.59,-0.4609 -22.4,-0.4609 1.23,9.1484 2.32,19.039 3.3,29.5898 0.99,10.5899 1.81,21.5507 2.49,32.8907 0.63,11.359 1.15,22.48 1.45,33.379 0.3,10.871 0.46,21.66 0.46,32.351 0,18.598 -0.44,36.278 -1.23,53.051 -0.82,16.828 -2.15,33.656 -4.01,50.477"
             style="fill:#4f4c4c;fill-opacity:1;fill-rule:nonzero;stroke:none"
             id="path118"
             inkscape:connector-curvature="0" /></g></g></g></g></svg>