<?xml version="1.0" encoding="utf-8"?>
<!-- Generator: Adobe Illustrator 16.0.4, SVG Export Plug-In . SVG Version: 6.00 Build 0)  -->
<!DOCTYPE svg PUBLIC "-//W3C//DTD SVG 1.1//EN" "http://www.w3.org/Graphics/SVG/1.1/DTD/svg11.dtd">
<svg version="1.1"
	 id="Ebene_1" xmlns:dc="http://purl.org/dc/elements/1.1/" xmlns:cc="http://creativecommons.org/ns#" xmlns:rdf="http://www.w3.org/1999/02/22-rdf-syntax-ns#" xmlns:svg="http://www.w3.org/2000/svg" xmlns:sodipodi="http://sodipodi.sourceforge.net/DTD/sodipodi-0.dtd" xmlns:inkscape="http://www.inkscape.org/namespaces/inkscape" sodipodi:docname="flyin.svg" inkscape:version="0.91 r13725"
	 xmlns="http://www.w3.org/2000/svg" xmlns:xlink="http://www.w3.org/1999/xlink" x="0px" y="0px" width="1200px" height="275.68px"
	 viewBox="-50 0 1200 275.68" enable-background="new -50 0 1200 275.68" xml:space="preserve">
<sodipodi:namedview  inkscape:cy="137.83949" inkscape:cx="480.5" inkscape:zoom="0.3194589" showgrid="false" guidetolerance="10" gridtolerance="10" objecttolerance="10" borderopacity="1" pagecolor="#ffffff" bordercolor="#666666" id="namedview37" inkscape:current-layer="Ebene_1" inkscape:window-maximized="1" inkscape:window-y="0" inkscape:window-x="1920" inkscape:window-height="1104" inkscape:window-width="1912" inkscape:pageshadow="2" inkscape:pageopacity="0">
	</sodipodi:namedview>
<g id="g3" transform="matrix(1.0425136,0,0,1.0425136,52.534367,-27.086071)">
	<path id="path5" inkscape:connector-curvature="0" fill="#EB5D40" d="M373.09,138.788c0-2.376,0.987-3.761,3.96-3.761h71.447
		c2.377,0,3.763,1.385,3.763,3.761v12.271c0,2.374-0.988,3.561-3.959,3.561h-52.844v34.043h46.115c2.571,0,3.763,1.19,3.763,3.56
		v12.274c0,2.572-0.994,3.763-3.961,3.763h-45.717v54.425c0,2.177-0.99,3.76-3.765,3.76h-14.842c-2.771,0-3.96-1.186-3.96-3.76
		L373.09,138.788L373.09,138.788z"/>
	<path id="path7" inkscape:connector-curvature="0" fill="#EB5D40" d="M528.477,247.054h56.604c2.376,0,3.565,0.787,3.565,3.364
		v12.466c0,2.376-0.992,3.561-3.763,3.561h-74.812c-2.972,0-3.961-1.186-3.961-3.561v-123.9c0-2.571,1.186-3.957,3.759-3.957h14.846
		c2.571,0,3.759,1.188,3.759,3.957L528.477,247.054L528.477,247.054z"/>
	<path id="path9" inkscape:connector-curvature="0" fill="#EB5D40" d="M655.167,212.412l-40.771-73.624
		c-0.791-1.784-0.199-3.563,1.979-3.563h16.823c3.363,0,4.156,0.792,5.54,3.364l16.03,30.877l11.286,21.774h1.187l11.874-22.366
		l16.029-29.688c1.388-2.771,2.377-3.96,5.545-3.96h16.23c2.571,0,3.166,1.584,2.174,3.563l-41.76,73.624v50.273
		c0,2.177-0.793,3.76-3.563,3.76h-14.646c-2.77,0-3.958-1.186-3.958-3.76V212.412L655.167,212.412z"/>
	<path id="path11" inkscape:connector-curvature="0" fill="#EB5D40" d="M772.955,138.984c0-2.571,0.989-3.957,3.758-3.957h15.044
		c2.771,0,3.759,1.582,3.759,3.957v123.701c0,2.177-0.988,3.76-3.759,3.76h-15.044c-2.769,0-3.758-1.186-3.758-3.76V138.984
		L772.955,138.984z"/>
	<path id="path13" inkscape:connector-curvature="0" fill="#EB5D40" d="M881.227,175.998h-0.595v86.688
		c0,2.377-0.988,3.76-3.759,3.76h-14.251c-2.77,0-3.961-1.186-3.961-3.76V138.788c0-2.179,1.191-3.563,3.764-3.563h11.279
		c5.938,0,6.927,2.969,9.499,6.73l24.941,38.793l28.502,44.534h0.591v-86.097c0-2.574,0.792-3.96,3.762-3.96l14.252-0.001
		c2.772,0,3.759,1.189,3.759,3.961v123.7c0,2.376-0.987,3.561-3.759,3.561l-11.284,0.001c-3.561,0-4.949-1.186-6.533-3.76
		l-42.944-65.514L881.227,175.998L881.227,175.998z"/>
</g>
<path id="path15" inkscape:connector-curvature="0" fill="#EB5D40" d="M791.064,53.78v-2.415c0-0.585,0.29-0.731,0.879-0.731h19.089
	c0.588,0,0.879,0.146,0.879,0.731v2.415c0,0.365-0.219,0.584-0.731,0.584h-19.383C791.283,54.363,791.064,54.144,791.064,53.78z
	 M861.373,77.772c0,0.438-0.219,0.657-0.804,0.657h-24.286c-0.438,0-0.731-0.219-0.731-0.657v-2.485
	c0-0.515,0.218-0.658,0.731-0.658h9.947V35.201h-8.779c-0.508,0-0.727-0.146-0.727-0.658v-1.171c0-0.438,0.071-0.733,0.586-0.877
	l7.604-2.196c0.661-0.219,1.463-0.366,2.195-0.366h2.415c0.803,0,0.879,0.366,0.879,0.88v43.815h10.165
	c0.514,0,0.804,0.146,0.804,0.658V77.772L861.373,77.772z M885.641,79.089c-16.529,0-16.529-9.216-16.529-23.043
	c0-12.871,1.754-26.625,18.141-26.625c2.851,0,8.56,0.512,12.067,1.901c0.515,0.221,0.515,0.657,0.441,1.098l-0.218,1.17
	c-0.075,0.365-0.224,0.805-1.025,0.731c-3.656-0.437-6.878-1.098-11.413-1.098c-11.334,0-13.382,8.559-13.677,18.216
	c8.413-0.951,11.56-1.17,16.239-1.17c8.704,0,12.876,4.461,12.876,14.922C902.542,75.286,895.15,79.089,885.641,79.089
	L885.641,79.089z M888.64,54.071c-2.851,0-7.898,0.366-15.284,1.243v1.683c0,10.827-0.075,18.507,12.581,18.507
	c5.336,0,12.361-1.535,12.361-10.166C898.299,58.313,896.32,54.071,888.64,54.071z M928.636,53.78v-2.415
	c0-0.585,0.295-0.731,0.879-0.731h19.093c0.586,0,0.874,0.146,0.874,0.731v2.415c0,0.365-0.218,0.584-0.73,0.584h-19.383
	C928.855,54.363,928.636,54.144,928.636,53.78L928.636,53.78z"/>
<g id="g17" transform="matrix(1.0783301,0,0,1.0783301,3.379108,-13.730341)">
	<path id="path19" inkscape:connector-curvature="0" fill="#EB5D40" d="M162.093,168.483c-32.606,1.486-76.201,0.244-88.332,17.378
		c-5.929,8.378,9.812,36.238,22.879,53.866c11.32,15.263,26.501,25.834,45.468,26.934c25.542,1.48,51.901-12.731,72.981-27.224
		c17.517-12.038,49.349-30.311,46.337-48.073c-2.621-15.461-25.75-21.577-41.417-22.302
		C204.761,168.356,180.132,167.661,162.093,168.483"/>
	<polygon id="polygon21" fill="#FFFFFF" points="125.949,169.745 113.496,170.795 96.663,184.301 75.088,202.688 79.504,212.893 
		84.932,203.846 102.891,186.181 123.597,171.41 	"/>
	<path id="path23" inkscape:connector-curvature="0" fill="none" stroke="#EB5D40" stroke-width="4.3093" d="M159.533,129.895
		c0,0-88.137-73.141-129.689-107.548c-7.851-6.498-19.196-6.181-19.248,0c-0.081,9.277-1.156,19.87,3.099,22.638
		C27.509,53.962,62.814,74.35,80.22,84.601c0,0,1.711,3.39,0.82,4.708c-0.742,1.099-2.742,1.478-3.89,0.82
		C57.045,78.659,17.559,56.341,17.559,56.341s5.51,25.463,12.285,28.466c45.479,20.162,121.436,52.218,121.436,52.218
		L159.533,129.895L159.533,129.895z"/>
	<path id="path25" inkscape:connector-curvature="0" fill="none" stroke="#EB5D40" stroke-width="4.3093" d="M155.299,132.121
		c0,0-39.914-26.915-59.167-38.772c-1.642-1.012-4.608-1.525-5.792,0c-1.067,1.379-0.189,4.167,1.304,5.069
		c24.011,14.5,61.771,35.44,61.771,35.44L155.299,132.121z"/>
	<path id="path27" inkscape:connector-curvature="0" fill="none" stroke="#EB5D40" stroke-width="4.3093" d="M181.023,140.974
		c0,0,98.739-25.26,144.006-26.065c5.607-0.101,12.011,5.146,10.137,10.427c-2.348,6.631-3.617,14.414-8.108,14.48
		c-25.208,0.372-40.678-0.279-63.713,0.29c0,0-2.615,0.645-2.895,1.738c-0.334,1.299,0.687,3.457,2.023,3.473
		c22.255,0.293,59.951,1.16,59.951,1.16s-7.029,7.073-10.137,9.847c-3.174,2.83-10.531,7.57-14.768,7.239
		c-19.799-1.545-35.641-5.392-55.895-8.688c-20.098-3.271-61.684-10.134-61.684-10.134L181.023,140.974L181.023,140.974z"/>
	<path id="path29" inkscape:connector-curvature="0" fill="none" stroke="#EB5D40" stroke-width="4.3093" d="M182.38,140.807
		c0,0,40.948-1.06,59.31-1.301c1.874-0.023,4.482,1.212,4.712,3.072c0.166,1.389-1.47,3.078-2.869,3.073
		c-18.777-0.085-61.056-1.916-61.056-1.916L182.38,140.807L182.38,140.807z"/>
	<path id="path31" inkscape:connector-curvature="0" fill="#EB5D40" d="M160.158,117.241c0.572-3.997,6.845-5.215,10.858-4.779
		c4.462,0.487,11.854,3.423,10.957,7.82c-0.819,3.998-9.324,5.974-13.708,5.214C164.23,124.793,159.576,121.296,160.158,117.241"/>
	<path id="path33" inkscape:connector-curvature="0" fill="#EB5D40" d="M180.9,124.633c-0.032-5.571,5.831-6.33,9.861-6.601
		c4.475-0.302,10.345,1.449,10.114,5.934c-0.137,2.733-2.007,7.365-10.55,7.379C186.227,131.354,180.923,128.729,180.9,124.633"/>
	<path id="path35" inkscape:connector-curvature="0" fill="none" stroke="#EB5D40" stroke-width="3.7631" d="M171.777,167.237
		c0,0,6.856-7.695,8.963-13.561c1.073-2.978-2.592-7.001-2.592-7.001s-26.339,4.064-62.923,31.7
		c-12.094,9.139-25.636,18.186-34.385,30.567c-3.291,4.659-3.158,11.376-6.95,15.64c-3.655,4.1-9.656,11.505-14.192,8.396
		c-4.843-3.32-5.285-9.113-1.61-13.692c32.043-33.419,59.976-52.365,96.02-72.899c2.267-1.118-5.21-2.978-5.21-5.503
		c0-2.067,4.882-4.018,9.812-7.278c2.729-1.805,4.306-5.424,7.854-6.333c5.593-1.432,12.901,1.539,14.914,6.951
		c0.846,2.267-2.172,5.504-2.172,5.504"/>
</g>
</svg>
