<?xml version="1.0" encoding="UTF-8" standalone="no"?>
<!-- Created with Inkscape (http://www.inkscape.org/) -->
<svg xmlns:dc="http://purl.org/dc/elements/1.1/" xmlns:cc="http://creativecommons.org/ns#" xmlns:rdf="http://www.w3.org/1999/02/22-rdf-syntax-ns#" xmlns:svg="http://www.w3.org/2000/svg" xmlns="http://www.w3.org/2000/svg" xmlns:sodipodi="http://sodipodi.sourceforge.net/DTD/sodipodi-0.dtd" xmlns:inkscape="http://www.inkscape.org/namespaces/inkscape" width="425" height="415" id="svg3742" version="1.1" inkscape:version="0.47 r22583" sodipodi:docname="Neues Dokument 4">
  <defs id="defs3744">
    <inkscape:perspective sodipodi:type="inkscape:persp3d" inkscape:vp_x="0 : 526.18109 : 1" inkscape:vp_y="0 : 1000 : 0" inkscape:vp_z="744.09448 : 526.18109 : 1" inkscape:persp3d-origin="372.04724 : 350.78739 : 1" id="perspective3750"/>
    <inkscape:perspective id="perspective3713" inkscape:persp3d-origin="0.5 : 0.33333333 : 1" inkscape:vp_z="1 : 0.5 : 1" inkscape:vp_y="0 : 1000 : 0" inkscape:vp_x="0 : 0.5 : 1" sodipodi:type="inkscape:persp3d"/>
  </defs>
  <sodipodi:namedview id="base" pagecolor="#ffffff" bordercolor="#666666" borderopacity="1.0" inkscape:pageopacity="0.0" inkscape:pageshadow="2" inkscape:zoom="1.2881271" inkscape:cx="212.5" inkscape:cy="207.5" inkscape:document-units="px" inkscape:current-layer="layer1" showgrid="false" inkscape:window-width="1280" inkscape:window-height="1005" inkscape:window-x="-4" inkscape:window-y="-4" inkscape:window-maximized="1"/>
  <metadata id="metadata3747">
    <rdf:RDF>
      <cc:Work rdf:about="">
        <dc:format>image/svg+xml</dc:format>
        <dc:type rdf:resource="http://purl.org/dc/dcmitype/StillImage"/>
        <dc:title/>
      </cc:Work>
    </rdf:RDF>
  </metadata>
  <g inkscape:label="Ebene 1" inkscape:groupmode="layer" id="layer1" transform="translate(-68.79548,-369.45293)">
    <g id="g3679" transform="matrix(0.68517441,0,0,0.68517441,-269.09802,304.06914)">
      <g transform="translate(-222.19932,515.5887)" id="g3665">
        <path style="fill:#ec6a50;fill-opacity:1;stroke:none" d="m 1004.9808,-127.99236 c -60.72177,2.76872 -141.90803,0.45196 -164.49225,32.359118 -11.04348,15.60231 18.26466,67.48983 42.60618,100.3132801 21.07697,28.4213399 49.34844,48.1112799 84.67304,50.1566399 47.56023,2.75384 96.64733,-23.71223 135.90843,-50.6959499 32.6186,-22.4184601 91.9017,-56.4489601 86.2909,-89.5269101 -4.8828,-28.786288 -47.9563,-40.179238 -77.1226,-41.527538 -28.4016,-1.31294 -74.2691,-2.61045 -107.8637,-1.07864 z" id="path3661" sodipodi:nodetypes="csssssss"/>
        <path style="fill:#ffffff;stroke:none" d="m 914.48232,-276.0519 -31.3479,25.14573 -40.17925,34.24674 8.22462,19.01099 10.11222,-16.85371 33.43776,-32.89844 38.56129,-27.50526 4.38196,-3.10108 -23.1907,1.95503 z" id="path3663" transform="translate(0,152.36224)" sodipodi:nodetypes="ccccccccc"/>
        <g id="g3650" transform="translate(222.71187,-517.11864)" style="stroke:#ec6a50;stroke-opacity:1">
          <g transform="translate(371.44068,192.9661)" id="g3638" style="stroke:#ec6a50;stroke-opacity:1">
            <path style="fill:none;stroke:#ec6a50;stroke-width:5.5;stroke-linecap:butt;stroke-linejoin:miter;stroke-miterlimit:4;stroke-opacity:1;stroke-dasharray:none" d="m 406.06152,124.29759 c 0,0 -164.13038,-136.211272 -241.51398,-200.281259 -14.61897,-12.103824 -35.74867,-11.513963 -35.84745,0 -0.14821,17.274658 -2.14662,37.003931 5.77754,42.15493 25.72337,16.721142 91.46421,54.686606 123.88347,73.777272 0,0 3.19016,6.314484 1.52542,8.771186 -1.38458,2.043266 -5.102,2.748649 -7.24576,1.525424 -37.43569,-21.360706 -110.97457,-62.923729 -110.97457,-62.923729 0,0 10.26707,47.416004 22.88135,53.008475 84.68966,37.546684 226.14407,97.245761 226.14407,97.245761 l 15.36991,-13.27806 z" id="path3630" sodipodi:nodetypes="cssscsscscc"/>
            <path style="fill:none;stroke:#ec6a50;stroke-width:5.5;stroke-linecap:butt;stroke-linejoin:miter;stroke-miterlimit:4;stroke-opacity:1;stroke-dasharray:none" d="m 398.17432,128.44227 c 0,0 -74.32841,-50.123317 -110.17812,-72.201717 -3.06145,-1.885427 -8.58321,-2.841371 -10.78638,0 -1.99048,2.56708 -0.35364,7.7587 2.42694,9.43807 44.71309,27.00511 115.03199,65.999567 115.03199,65.999567 l 3.50557,-3.23592 z" id="path3632" sodipodi:nodetypes="cssscc"/>
          </g>
          <g transform="translate(1.1328461,0.13086078)" id="g3642" style="stroke:#ec6a50;stroke-opacity:1">
            <path style="fill:none;stroke:#ec6a50;stroke-width:5.5;stroke-linecap:butt;stroke-linejoin:miter;stroke-miterlimit:4;stroke-opacity:1;stroke-dasharray:none" d="m 816.39373,185.40269 c 0,0 183.87747,-47.04059 268.17627,-48.53869 10.4345,-0.18543 22.3612,9.57847 18.8761,19.41547 -4.3745,12.34738 -6.7371,26.84096 -15.1009,26.96594 -46.9414,0.69742 -75.7553,-0.52389 -118.65013,0.53932 0,0 -4.87216,1.20519 -5.39318,3.23591 -0.62067,2.41913 1.27796,6.43907 3.77523,6.47183 41.43758,0.54364 111.63898,2.15728 111.63898,2.15728 0,0 -13.0918,13.17105 -18.8762,18.33683 -5.9059,5.27428 -19.6111,14.09928 -27.5052,13.48296 -36.86622,-2.87827 -66.36893,-10.04254 -104.08853,-16.17956 -37.42632,-6.0893 -114.87489,-18.87615 -114.87489,-18.87615 l 2.02245,-7.01114 z" id="path3634" transform="translate(0,152.36224)" sodipodi:nodetypes="csssssscssscc"/>
            <path style="fill:none;stroke:#ec6a50;stroke-width:5.5;stroke-linecap:butt;stroke-linejoin:miter;stroke-miterlimit:4;stroke-opacity:1;stroke-dasharray:none" d="m 818.91723,185.09246 c 0,0 76.25879,-1.97039 110.44717,-2.42296 3.49025,-0.0462 8.34992,2.25529 8.77119,5.72033 0.31479,2.58919 -2.73076,5.73177 -5.33899,5.72034 -34.96901,-0.15331 -113.69827,-3.56703 -113.69827,-3.56703 l -0.1811,-5.45068 z" id="path3636" transform="translate(0,152.36224)" sodipodi:nodetypes="cssscc"/>
          </g>
          <path sodipodi:nodetypes="cssss" id="path3646" d="m 778.66454,293.69875 c 1.06297,-7.44331 12.74967,-9.71142 20.22445,-8.89876 8.30663,0.9031 22.07662,6.37565 20.40158,14.56161 -1.5246,7.45078 -17.3602,11.12569 -25.52511,9.70773 -7.51568,-1.30522 -16.17934,-7.81902 -15.10092,-15.37058 z" style="fill:#ec6a50;fill-opacity:1;stroke:#ec6a50;stroke-opacity:1"/>
          <path style="fill:#ec6a50;fill-opacity:1;stroke:#ec6a50;stroke-opacity:1" d="m 817.29445,307.46595 c -0.0617,-10.37476 10.85912,-11.78751 18.36101,-12.29185 8.33676,-0.56047 19.26219,2.69888 18.83968,11.04377 -0.25797,5.09519 -3.73479,13.7185 -19.64898,13.74728 -7.62816,0.0138 -17.50716,-4.87116 -17.55171,-12.4992 z" id="path3648" sodipodi:nodetypes="cssss"/>
          <path sodipodi:nodetypes="cscssssccssssc" id="path2852" d="m 800.30475,386.80459 c 0,0 12.77136,-14.32975 16.69682,-25.25227 1.99352,-5.54695 -4.83181,-13.03936 -4.83181,-13.03936 0,0 -50.07981,4.33413 -118.20334,55.80032 -22.52509,17.01733 -46.71243,37.10041 -63.00775,60.15321 -6.13202,8.6749 -5.88056,21.18795 -12.94365,29.12321 -6.80556,7.64593 -17.98296,21.42647 -26.42662,15.64024 -9.02039,-6.18145 -9.84499,-16.96956 -2.99664,-25.49471 61.85186,-58.94958 111.68335,-97.52248 178.81455,-135.76159 4.21812,-2.08458 -9.70742,-5.54195 -9.70774,-10.24705 -2.6e-4,-3.84984 9.08934,-7.48243 18.27192,-13.55348 5.08443,-3.36156 8.01771,-10.1018 14.62652,-11.7945 10.41565,-2.66773 24.02417,2.86722 27.77492,12.94365 1.57159,4.22208 -4.04489,10.24705 -4.04489,10.24705" style="fill:none;stroke:#ec6a50;stroke-width:4.80000019;stroke-linecap:butt;stroke-linejoin:miter;stroke-miterlimit:4;stroke-opacity:1;stroke-dasharray:none"/>
        </g>
      </g>
      <g transform="translate(414.91525,-74.745763)" id="text2827" style="font-size:69.95552826px;font-style:normal;font-variant:normal;font-weight:300;font-stretch:normal;text-align:start;line-height:100%;writing-mode:lr-tb;text-anchor:start;fill:#4d4d4d;fill-opacity:1;stroke:none;font-family:PostAntiqua;-inkscape-font-specification:PostAntiqua Light">
        <path id="path2832" style="fill:#4d4d4d" d="m 128.31835,716.56585 c -0.84261,-1.07024 -2.06091,-2.06652 -3.6549,-2.98882 -1.59408,-0.92223 -3.41014,-1.65093 -5.4482,-2.18612 -2.03812,-0.53509 -4.09329,-0.80266 -6.16551,-0.80271 -2.3,5e-5 -4.46903,0.34732 -6.5071,1.04182 -2.03811,0.69459 -3.89402,1.84457 -5.56775,3.44996 -1.673752,1.60546 -3.000218,3.73464 -3.9794,6.38754 -0.979207,2.65296 -1.468804,5.84673 -1.468793,9.58131 l 0,0.81979 c -1.1e-5,4.87322 1.093043,8.86401 3.279165,11.97237 2.186098,3.10838 4.611308,5.35142 7.275648,6.72912 2.6643,1.37771 4.6113,2.06656 5.84101,2.06656 4.71377,0 8.38575,-0.79133 11.01595,-2.37398 2.63012,-1.58265 4.49173,-3.55811 5.58483,-5.92641 1.09301,-2.36827 1.92419,-5.32863 2.49353,-8.88107 0.56925,-3.55241 0.94499,-5.65881 1.12721,-6.31923 l 7.10486,-1.09305 c -5e-5,1.20694 -0.70598,4.17299 -2.11779,8.89815 -1.41192,4.7252 -3.12551,9.95706 -5.14078,15.69559 -2.01536,5.73853 -3.78588,10.4751 -5.31156,14.20971 -0.54657,0.29603 -1.23542,0.50667 -2.06656,0.63193 -0.83122,0.12523 -1.58838,0.25048 -2.2715,0.37573 -0.6832,0.12524 -1.24111,0.33588 -1.67375,0.63193 l -0.54652,-0.54653 6.0118,-16.94236 c -3.2792,2.02671 -6.33634,3.50689 -9.17142,4.44054 -2.83514,0.93365 -5.51653,1.40048 -8.0442,1.40048 -4.44055,0 -8.2207,-1.27523 -11.340445,-3.8257 -3.119771,-2.55045 -5.476669,-5.54496 -7.0707,-8.98354 -1.594043,-3.43856 -2.470764,-6.39891 -2.630164,-8.88107 -0.06832,-0.84255 -0.102477,-1.68511 -0.102474,-2.52769 -3e-6,-3.18806 0.546524,-6.19395 1.639583,-9.01771 1.093049,-2.82369 2.863569,-5.43108 5.311565,-7.82218 2.447975,-2.39101 5.675905,-4.46326 9.683785,-6.21675 4.00784,-1.75339 8.88104,-3.06278 14.61961,-3.92816 0.36432,-0.0455 0.67174,-0.0683 0.92227,-0.0683 2.00389,5e-5 4.48035,0.62059 7.42936,1.86161 2.94892,1.24112 5.44814,2.64729 7.49767,4.21851 z"/>
        <path id="path2834" style="fill:#4d4d4d" d="m 164.65885,705.08877 9.83749,-1.63958 -1.63958,49.18748 c 2.89203,0 5.79545,-0.0626 8.71029,-0.18787 2.91478,-0.12524 5.91499,-0.47252 9.00062,-1.04182 3.08557,-0.56929 5.37984,-1.43463 6.88283,-2.59601 l 0.54653,1.09306 c -0.18221,0.36436 -0.43271,0.88811 -0.75148,1.57127 -0.31884,0.68316 -0.5921,1.26954 -0.81979,1.75913 -0.22775,0.4896 -0.50671,1.0589 -0.83687,1.7079 -0.33023,0.649 -0.62057,1.15568 -0.87103,1.52003 -2.77821,-0.31881 -6.14846,-0.47821 -10.11076,-0.47821 -1.13862,0 -2.56756,0.0171 -4.28682,0.0512 -1.7193,0.0341 -3.46136,0.0797 -5.22617,0.13663 -1.76484,0.0569 -3.76878,0.11955 -6.0118,0.18787 -2.24305,0.0683 -3.89971,0.10247 -4.96999,0.10247 0.27326,-2.0267 0.51806,-4.21281 0.7344,-6.55833 0.21633,-2.34551 0.3985,-4.77641 0.54653,-7.29273 0.14801,-2.51629 0.25617,-4.98135 0.3245,-7.3952 0.0683,-2.41381 0.10246,-4.80486 0.10247,-7.17317 -1e-5,-4.1217 -0.0911,-8.04417 -0.27326,-11.76742 -0.18219,-3.72318 -0.47822,-7.45209 -0.88811,-11.18674 z"/>
        <path style="fill:#4d4d4d" id="path2836" d="m 252.06938,706.18182 c 0.67041,2.25448 1.94925,5.31731 3.83651,9.1885 1.88717,3.87127 4.1841,8.3118 6.89081,13.32161 2.70662,5.00986 5.36982,9.9286 7.98963,14.75624 2.61969,4.82767 4.72418,8.80138 6.31347,11.92113 -3.97314,0.72871 -6.7543,1.27524 -8.34347,1.63959 -0.81951,-1.52572 -1.86864,-3.5752 -3.14743,-6.14844 -1.27888,-2.57322 -2.40873,-4.84473 -3.38954,-6.81451 -0.98089,-1.96977 -2.01762,-3.93385 -3.11018,-5.89225 -1.09263,-1.95837 -2.24731,-3.87122 -3.46403,-5.73854 -3.32749,0.61486 -6.86601,0.92229 -10.61558,0.92226 -2.38388,3e-5 -4.60632,-0.12522 -6.66733,-0.37574 -1.48993,3e-5 -2.60115,0.21636 -3.33367,0.64901 -0.73256,0.43269 -1.37198,1.12723 -1.91825,2.08363 -0.54632,0.95645 -1.17953,2.0495 -1.89963,3.27917 -0.69531,1.0703 -1.60167,2.48216 -2.71908,4.23559 -1.11744,1.75345 -2.35283,3.64922 -3.70615,5.6873 -1.35334,2.0381 -2.98603,4.37792 -4.89806,7.01946 l -6.55558,0 -0.59597,-0.54653 c 0.0496,-0.0683 2.37763,-3.29624 6.98394,-9.68378 4.60628,-6.38752 8.25034,-11.5226 10.93218,-15.40525 2.68182,-3.88259 5.30156,-7.87338 7.85925,-11.97237 2.55765,-4.09891 4.89184,-8.14093 7.00257,-12.12608 1.19189,0.27332 2.28448,0.40995 3.2778,0.4099 0.99323,5e-5 2.08583,-0.13658 3.27779,-0.4099 z m 2.97981,23.50069 -7.74751,-15.8493 -9.5354,15.8493 c -0.0993,0.0911 -0.14902,0.17082 -0.149,0.23911 -2e-5,0.52378 2.07343,0.78565 6.22036,0.78563 2.38383,2e-5 4.74284,-0.10245 7.07706,-0.30742 2.33415,-0.20493 3.71231,-0.44403 4.13449,-0.71732 z"/>
        <path style="fill:#4d4d4d" id="path2838" d="m 324.53923,709.46099 -4.91875,3.27916 c -2.41385,-2.00388 -4.9757,-3.00585 -7.68554,-3.0059 -1.6396,5e-5 -3.17102,0.38717 -4.59425,1.16137 -1.42326,0.7743 -2.55617,1.81611 -3.39872,3.12546 -0.84257,1.30943 -1.26385,2.72698 -1.26384,4.25267 -1e-5,2.07228 0.83686,4.07052 2.51061,5.99472 1.67372,1.92426 4.29819,3.54677 7.87341,4.86751 3.59795,1.34357 6.2395,2.81237 7.92465,4.40638 1.6851,1.59406 2.52766,3.73462 2.52769,6.4217 -3e-5,0.25051 -0.0228,0.64902 -0.0683,1.19553 -3e-5,1.20693 -0.48962,2.71557 -1.46879,4.52593 -0.97922,1.81038 -2.36831,3.60367 -4.16727,5.37988 -1.79901,1.77622 -3.88265,3.22224 -6.25091,4.33806 -2.3683,1.11583 -4.85045,1.67374 -7.44644,1.67374 -3.23363,0 -6.44448,-0.93365 -9.63255,-2.80095 l 4.91875,-4.37222 c 2.20887,1.77622 4.90735,2.66432 8.09544,2.66432 1.9356,0 3.97369,-0.34157 6.11428,-1.02474 0.77422,-0.52375 1.34921,-1.18983 1.72497,-1.99824 0.37572,-0.8084 0.71161,-1.96407 1.00766,-3.46703 0.20493,-1.02473 0.3074,-1.95838 0.30743,-2.80096 -3e-5,-2.39104 -0.73442,-4.18433 -2.20319,-5.37988 -1.46882,-1.19551 -4.05913,-2.59598 -7.77094,-4.20143 -3.71184,-1.6054 -6.68359,-3.12543 -8.91523,-4.56009 -0.75148,-0.63759 -1.3834,-1.62817 -1.89577,-2.97174 -0.51237,-1.34352 -0.76856,-2.83508 -0.76855,-4.4747 -10e-6,-3.80288 1.43463,-6.78601 4.3039,-8.94939 0.68315,-0.68311 1.79329,-1.54275 3.3304,-2.57892 1.5371,-1.03608 3.36455,-1.96404 5.48236,-2.78388 2.11777,-0.81974 4.32665,-1.22963 6.62664,-1.22968 3.50686,5e-5 6.74048,1.10449 9.70087,3.31332 z"/>
        <path id="path2840" style="fill:#4d4d4d" d="m 352.36815,705.6353 c 6.3306,0.38717 11.89835,0.58073 16.70325,0.58068 7.03652,5e-5 11.30626,-0.37569 12.80924,-1.12721 l 1.09306,1.09305 -4.37222,4.37222 c -3.93958,-0.61479 -7.65141,-0.92221 -11.1355,-0.92226 -2.23168,5e-5 -4.53164,0.12529 -6.89991,0.37574 -0.11388,1.45745 -0.23343,2.94901 -0.35866,4.47469 -0.12526,1.52576 -0.22773,3.02302 -0.30742,4.49177 -0.0797,1.46883 -0.11957,2.90916 -0.11956,4.32099 -1e-5,1.86733 0.0797,3.63216 0.23911,5.29448 3.6435,0.36438 6.89989,0.54656 9.76918,0.54653 3.93953,3e-5 6.51276,-0.36432 7.7197,-1.09305 l 1.09306,1.09305 -3.27917,3.82569 -14.20972,-0.54652 c -0.6604,2e-5 -1.09876,0.41561 -1.31508,1.24676 -0.21634,0.8312 -0.32451,2.28291 -0.3245,4.35514 -10e-6,0.70595 0.0228,2.2886 0.0683,4.74796 0.0455,2.45939 0.0683,4.57718 0.0683,6.35339 -10e-6,2.68709 -0.0455,5.31726 -0.13663,7.89049 -0.61485,-0.15941 -1.33217,-0.23911 -2.15195,-0.23911 -1.32078,0 -3.3361,0.26188 -6.04596,0.78564 0.0683,-1.91285 0.22771,-4.99276 0.47821,-9.23974 0.25049,-4.24696 0.46113,-7.86201 0.63192,-10.84515 0.17079,-2.98311 0.31311,-6.02886 0.42698,-9.13726 0.11385,-3.10835 0.17078,-6.26795 0.17079,-9.47884 -1e-5,-4.94148 -0.20496,-9.34785 -0.61485,-13.21913 z"/>
        <path id="path2842" style="fill:#4d4d4d" d="m 403.57906,705.08877 9.8375,-1.63958 -1.63959,49.18748 c 2.89203,0 5.79545,-0.0626 8.71029,-0.18787 2.91479,-0.12524 5.91499,-0.47252 9.00062,-1.04182 3.08557,-0.56929 5.37985,-1.43463 6.88283,-2.59601 l 0.54653,1.09306 c -0.18221,0.36436 -0.4327,0.88811 -0.75147,1.57127 -0.31885,0.68316 -0.59211,1.26954 -0.81979,1.75913 -0.22776,0.4896 -0.50672,1.0589 -0.83688,1.7079 -0.33023,0.649 -0.62057,1.15568 -0.87102,1.52003 -2.77822,-0.31881 -6.14847,-0.47821 -10.11076,-0.47821 -1.13863,0 -2.56757,0.0171 -4.28683,0.0512 -1.7193,0.0341 -3.46136,0.0797 -5.22617,0.13663 -1.76484,0.0569 -3.76877,0.11955 -6.0118,0.18787 -2.24305,0.0683 -3.89971,0.10247 -4.96999,0.10247 0.27326,-2.0267 0.51806,-4.21281 0.7344,-6.55833 0.21633,-2.34551 0.3985,-4.77641 0.54653,-7.29273 0.14801,-2.51629 0.25618,-4.98135 0.3245,-7.3952 0.0683,-2.41381 0.10246,-4.80486 0.10247,-7.17317 -1e-5,-4.1217 -0.0911,-8.04417 -0.27326,-11.76742 -0.18218,-3.72318 -0.47822,-7.45209 -0.88811,-11.18674 z"/>
        <path id="path2844" style="fill:#4d4d4d" d="m 459.1743,705.6353 c -0.13664,2.55051 -0.20495,4.97572 -0.20494,7.27564 -10e-6,7.44648 0.64899,13.69169 1.947,18.73565 1.29799,5.04402 2.9945,8.98356 5.08954,11.81866 2.095,2.83512 4.30957,4.81059 6.64372,5.92641 2.33411,1.11583 4.66254,1.67375 6.98531,1.67374 1.32074,1e-5 2.57889,-0.17648 3.77446,-0.52945 1.19549,-0.35296 2.04374,-0.74577 2.54476,-1.17845 1.36629,-1.16136 2.78384,-4.11033 4.25267,-8.84691 1.46875,-4.73656 2.84076,-10.2246 4.11604,-16.46415 1.27518,-6.23948 2.31131,-12.19435 3.10837,-17.86462 2.91477,0.72876 5.28305,1.09311 7.10486,1.09306 -1.36637,7.78806 -2.55621,14.0048 -3.56951,18.65025 -1.0134,4.64551 -2.26017,8.89248 -3.74029,12.74093 -1.48023,3.84847 -3.23367,6.86576 -5.26033,9.05186 -1.98121,2.98313 -4.48612,5.09523 -7.51476,6.3363 -3.0287,1.24108 -6.17123,1.86161 -9.4276,1.86161 -2.55048,0 -5.02124,-0.62053 -7.41228,-1.86161 -2.39107,-1.24107 -4.49748,-2.77817 -6.31922,-4.61132 -1.82177,-1.83314 -3.2564,-3.68336 -4.30391,-5.55067 -1.52573,-3.39301 -2.69279,-7.03083 -3.50119,-10.91348 -0.80841,-3.88259 -1.37771,-7.86769 -1.7079,-11.95529 -0.33019,-4.08753 -0.59776,-8.67039 -0.80271,-13.74858 0.70593,5e-5 1.49725,-0.0797 2.37398,-0.23911 0.87672,-0.15935 1.93561,-0.40984 3.17669,-0.75147 1.24107,-0.34153 2.12348,-0.55787 2.64724,-0.649 z m 17.45473,-10.96471 -2.18611,6.0118 -7.65139,0 -0.54653,-1.09305 c 0.72869,-1.093 1.45739,-2.73258 2.18611,-4.91875 1.3663,0.15946 2.51629,0.23916 3.44996,0.2391 0.40987,6e-5 0.91086,-0.0227 1.50295,-0.0683 0.59205,-0.0455 1.17273,-0.0853 1.74206,-0.11956 0.56927,-0.0341 1.07025,-0.0512 1.50295,-0.0512 z m 3.82569,0 8.74444,0 c -4e-5,1.32083 -0.29607,2.65299 -0.88811,3.99648 -0.59211,1.3436 -1.38912,2.01538 -2.39105,2.01532 l -7.65139,0 z"/>
        <path id="path2846" style="fill:#4d4d4d" d="m 563.84289,716.56585 c -0.84261,-1.07024 -2.06091,-2.06652 -3.65491,-2.98882 -1.59407,-0.92223 -3.41014,-1.65093 -5.44819,-2.18612 -2.03813,-0.53509 -4.0933,-0.80266 -6.16552,-0.80271 -2.29999,5e-5 -4.46902,0.34732 -6.50709,1.04182 -2.03811,0.69459 -3.89403,1.84457 -5.56775,3.44996 -1.67376,1.60546 -3.00022,3.73464 -3.9794,6.38754 -0.97921,2.65296 -1.46881,5.84673 -1.4688,9.58131 l 0,0.81979 c -1e-5,4.87322 1.09305,8.86401 3.27917,11.97237 2.18609,3.10838 4.61131,5.35142 7.27565,6.72912 2.66429,1.37771 4.6113,2.06656 5.84101,2.06656 4.71377,0 8.38575,-0.79133 11.01595,-2.37398 2.63012,-1.58265 4.49173,-3.55811 5.58482,-5.92641 1.09301,-2.36827 1.92419,-5.32863 2.49354,-8.88107 0.56925,-3.55241 0.94499,-5.65881 1.12721,-6.31923 l 7.10486,-1.09305 c -6e-5,1.20694 -0.70599,4.17299 -2.1178,8.89815 -1.41191,4.7252 -3.1255,9.95706 -5.14077,15.69559 -2.01537,5.73853 -3.78589,10.4751 -5.31157,14.20971 -0.54656,0.29603 -1.23542,0.50667 -2.06655,0.63193 -0.83122,0.12523 -1.58839,0.25048 -2.27151,0.37573 -0.68319,0.12524 -1.24111,0.33588 -1.67374,0.63193 l -0.54653,-0.54653 6.01181,-16.94236 c -3.27921,2.02671 -6.33634,3.50689 -9.17142,4.44054 -2.83514,0.93365 -5.51654,1.40048 -8.0442,1.40048 -4.44056,0 -8.2207,-1.27523 -11.34045,-3.8257 -3.11977,-2.55045 -5.47667,-5.54496 -7.0707,-8.98354 -1.59404,-3.43856 -2.47076,-6.39891 -2.63016,-8.88107 -0.0683,-0.84255 -0.10248,-1.68511 -0.10248,-2.52769 0,-3.18806 0.54653,-6.19395 1.63959,-9.01771 1.09305,-2.82369 2.86356,-5.43108 5.31156,-7.82218 2.44798,-2.39101 5.6759,-4.46326 9.68379,-6.21675 4.00784,-1.75339 8.88104,-3.06278 14.61961,-3.92816 0.36432,-0.0455 0.67174,-0.0683 0.92226,-0.0683 2.0039,5e-5 4.48035,0.62059 7.42936,1.86161 2.94893,1.24112 5.44815,2.64729 7.49768,4.21851 z"/>
        <path id="path2848" style="fill:#4d4d4d" d="m 600.39957,706.18182 c 4.37221,0.50104 8.65334,0.75153 12.8434,0.75148 5.55634,5e-5 10.38399,-0.43262 14.48298,-1.298 l 0,1.63958 -4.37222,3.27916 c -1.13863,-0.45539 -3.41583,-0.68311 -6.8316,-0.68315 -1.02476,4e-5 -2.33415,0.0228 -3.92817,0.0683 -1.59405,0.0456 -2.56186,0.0684 -2.90342,0.0683 l -0.54653,18.58193 c 1.38907,3e-5 2.55044,0.006 3.48411,0.0171 0.93364,0.0114 1.95837,0.0285 3.07422,0.0512 2.68707,3e-5 5.11798,-0.11383 7.29273,-0.34158 2.17469,-0.22769 4.116,-0.68313 5.82393,-1.36632 l 0.54653,1.09306 -4.91875,4.91874 c -2.0495,-0.45541 -4.62274,-0.68313 -7.7197,-0.68315 -0.86536,2e-5 -2.2089,0.0228 -4.03064,0.0683 -1.82178,0.0456 -3.18809,0.0683 -4.09896,0.0683 l -1.09305,20.22152 c 1.34353,0 2.89202,0.0285 4.64548,0.0854 1.75342,0.0569 3.16529,0.0854 4.23559,0.0854 2.68707,0 5.04397,-0.1651 7.0707,-0.49529 2.02668,-0.33019 3.6321,-0.95073 4.81627,-1.86161 l 1.09306,1.09305 -4.91875,4.91875 c -2.32277,-0.31881 -5.00986,-0.47821 -8.06128,-0.47821 -1.16139,0 -2.72127,0.0399 -4.67964,0.11955 -1.95841,0.0797 -4.09328,0.1594 -6.40462,0.23911 -2.31137,0.0797 -4.12743,0.11955 -5.4482,0.11955 0.40989,-3.34748 0.7287,-6.5754 0.95642,-9.68379 0.22772,-3.10836 0.40989,-6.58108 0.54653,-10.41818 0.13663,-3.83705 0.20494,-7.213 0.20495,-10.12784 -10e-6,-3.11972 -0.0455,-5.92068 -0.13663,-8.40286 -0.0911,-2.4821 -0.21634,-4.63975 -0.37574,-6.47293 -0.15941,-1.8331 -0.37574,-3.55808 -0.649,-5.17494 z"/>
        <path style="fill:#4d4d4d" id="path2850" d="m 660.29954,705.08877 9.83749,-1.63958 -1.63958,49.18748 c 2.89203,0 5.79545,-0.0626 8.71029,-0.18787 2.91478,-0.12524 5.91499,-0.47252 9.00062,-1.04182 3.08557,-0.56929 5.37984,-1.43463 6.88283,-2.59601 l 0.54653,1.09306 c -0.18221,0.36436 -0.43271,0.88811 -0.75148,1.57127 -0.31884,0.68316 -0.5921,1.26954 -0.81979,1.75913 -0.22775,0.4896 -0.50671,1.0589 -0.83687,1.7079 -0.33023,0.649 -0.62057,1.15568 -0.87103,1.52003 -2.77821,-0.31881 -6.14846,-0.47821 -10.11076,-0.47821 -1.13862,0 -2.56756,0.0171 -4.28682,0.0512 -1.7193,0.0341 -3.46136,0.0797 -5.22617,0.13663 -1.76484,0.0569 -3.76878,0.11955 -6.0118,0.18787 -2.24305,0.0683 -3.89971,0.10247 -4.96999,0.10247 0.27326,-2.0267 0.51806,-4.21281 0.7344,-6.55833 0.21633,-2.34551 0.3985,-4.77641 0.54652,-7.29273 0.14802,-2.51629 0.25618,-4.98135 0.32451,-7.3952 0.0683,-2.41381 0.10246,-4.80486 0.10247,-7.17317 -10e-6,-4.1217 -0.0911,-8.04417 -0.27326,-11.76742 -0.18219,-3.72318 -0.47822,-7.45209 -0.88811,-11.18674 z"/>
      </g>
    </g>
  </g>
</svg>