<?xml version="1.0" encoding="UTF-8" standalone="no"?>
<!-- Generator: Adobe Illustrator 16.0.4, SVG Export Plug-In . SVG Version: 6.00 Build 0)  -->

<svg
   xmlns:dc="http://purl.org/dc/elements/1.1/"
   xmlns:cc="http://creativecommons.org/ns#"
   xmlns:rdf="http://www.w3.org/1999/02/22-rdf-syntax-ns#"
   xmlns:svg="http://www.w3.org/2000/svg"
   xmlns="http://www.w3.org/2000/svg"
   xmlns:sodipodi="http://sodipodi.sourceforge.net/DTD/sodipodi-0.dtd"
   xmlns:inkscape="http://www.inkscape.org/namespaces/inkscape"
   version="1.1"
   id="svg3742"
   inkscape:version="0.92.2 2405546, 2018-03-11"
   sodipodi:docname="glasfluegel_logo_cup.svg"
   x="0px"
   y="0px"
   width="925"
   height="425"
   viewBox="0 0 925 425"
   enable-background="new 0 0 425 415"
   xml:space="preserve"><metadata
     id="metadata23"><rdf:RDF><cc:Work
         rdf:about=""><dc:format>image/svg+xml</dc:format><dc:type
           rdf:resource="http://purl.org/dc/dcmitype/StillImage" /><dc:title></dc:title></cc:Work></rdf:RDF></metadata><defs
     id="defs3"><inkscape:perspective
       inkscape:persp3d-origin="372.04724 : 350.78739 : 1"
       sodipodi:type="inkscape:persp3d"
       inkscape:vp_x="0 : 526.18109 : 1"
       inkscape:vp_y="0 : 1000 : 0"
       inkscape:vp_z="744.09448 : 526.18109 : 1"
       id="perspective3750" /><inkscape:perspective
       inkscape:persp3d-origin="0.5 : 0.33333333 : 1"
       sodipodi:type="inkscape:persp3d"
       inkscape:vp_x="0 : 0.5 : 1"
       inkscape:vp_y="0 : 1000 : 0"
       inkscape:vp_z="1 : 0.5 : 1"
       id="perspective3713" /></defs><sodipodi:namedview
     inkscape:pageopacity="0.0"
     inkscape:pageshadow="2"
     inkscape:document-units="px"
     inkscape:current-layer="layer1"
     inkscape:window-width="2552"
     inkscape:window-height="1319"
     inkscape:window-x="0"
     inkscape:window-y="0"
     inkscape:window-maximized="1"
     pagecolor="#ffffff"
     bordercolor="#666666"
     borderopacity="1.0"
     inkscape:zoom="1.8216868"
     inkscape:cx="590.24723"
     inkscape:cy="195.98372"
     showgrid="false"
     id="base" /><g
     id="layer1"
     transform="translate(-68.79548,-359.45293)"
     inkscape:groupmode="layer"
     inkscape:label="Ebene 1"><g
       id="g3679"
       transform="matrix(0.68517441,0,0,0.68517441,-269.09802,304.06914)"><g
         id="g3665"
         transform="translate(-222.19932,515.5887)"><path
           id="path3661"
           sodipodi:nodetypes="csssssss"
           d="m 1006.737,-63.648 c -55.452,2.527 -129.591,0.413 -150.216,29.55 -10.085,14.247 16.68,61.633 38.909,91.605 19.248,25.956 45.066,43.937 77.325,45.806 43.432,2.514 88.26,-21.654 124.114,-46.297 29.788,-20.471 83.926,-51.551 78.802,-81.757 -4.46,-26.288 -43.793,-36.692 -70.43,-37.924 -25.939,-1.197 -67.825,-2.381 -98.504,-0.983 z"
           inkscape:connector-curvature="0"
           style="fill:#ec6a50" /><path
           id="path3663"
           sodipodi:nodetypes="ccccccccc"
           d="m 924.093,-59.72 -28.627,22.965 -36.691,31.274 7.51,17.361 9.235,-15.393 30.536,-30.043 35.214,-25.118 4.001,-2.831 z"
           inkscape:connector-curvature="0"
           style="fill:#ffffff" /><g
           id="g3650"
           transform="translate(222.71187,-517.11864)"><g
             id="g3638"
             transform="translate(371.44068,192.9661)"><path
               id="path3630"
               sodipodi:nodetypes="cssscsscscc"
               d="m 408.232,194.879 c 0,0 -149.886,-124.39 -220.554,-182.899 -13.35,-11.052 -32.646,-10.514 -32.736,0 -0.135,15.776 -1.96,33.793 5.276,38.497 23.491,15.27 83.526,49.94 113.133,67.375 0,0 2.913,5.766 1.393,8.009 -1.265,1.866 -4.66,2.511 -6.617,1.393 C 233.94,107.748 166.784,69.792 166.784,69.792 c 0,0 9.375,43.301 20.895,48.408 77.34,34.289 206.518,88.806 206.518,88.806 z"
               inkscape:connector-curvature="0"
               style="fill:none;stroke:#ec6a50;stroke-width:5.5" /><path
               id="path3632"
               sodipodi:nodetypes="cssscc"
               d="m 401.03,198.664 c 0,0 -67.878,-45.773 -100.616,-65.935 -2.796,-1.722 -7.839,-2.595 -9.85,0 -1.817,2.345 -0.322,7.085 2.217,8.619 40.832,24.662 105.048,60.272 105.048,60.272 z"
               inkscape:connector-curvature="0"
               style="fill:none;stroke:#ec6a50;stroke-width:5.5" /></g><g
             id="g3642"
             transform="translate(1.1328461,0.13086078)"><path
               id="path3634"
               sodipodi:nodetypes="csssssscssscc"
               d="m 815.089,406.557 c 0,0 167.919,-42.959 244.902,-44.327 9.529,-0.168 20.42,8.748 17.239,17.73 -3.995,11.276 -6.153,24.511 -13.791,24.625 -42.867,0.637 -69.181,-0.479 -108.352,0.492 0,0 -4.45,1.102 -4.924,2.955 -0.569,2.211 1.166,5.881 3.446,5.912 37.841,0.497 101.95,1.97 101.95,1.97 0,0 -11.955,12.028 -17.239,16.744 -5.392,4.817 -17.909,12.876 -25.118,12.313 -33.666,-2.628 -60.608,-9.17 -95.055,-14.776 -34.178,-5.56 -104.905,-17.237 -104.905,-17.237 z"
               inkscape:connector-curvature="0"
               style="fill:none;stroke:#ec6a50;stroke-width:5.5" /><path
               id="path3636"
               sodipodi:nodetypes="cssscc"
               d="m 817.395,406.272 c 0,0 69.64,-1.799 100.863,-2.212 3.187,-0.041 7.625,2.06 8.01,5.225 0.288,2.363 -2.494,5.234 -4.876,5.224 -31.935,-0.14 -103.831,-3.258 -103.831,-3.258 z"
               inkscape:connector-curvature="0"
               style="fill:none;stroke:#ec6a50;stroke-width:5.5" /></g><path
             id="path3646"
             sodipodi:nodetypes="cssss"
             d="m 780.734,366.326 c 0.971,-6.797 11.643,-8.869 18.469,-8.127 7.586,0.825 20.163,5.823 18.63,13.297 -1.392,6.805 -15.853,10.16 -23.31,8.866 -6.862,-1.192 -14.774,-7.141 -13.789,-14.036 z"
             inkscape:connector-curvature="0"
             style="fill:#ec6a50;stroke:#ec6a50" /><path
             id="path3648"
             sodipodi:nodetypes="cssss"
             d="m 816.011,378.898 c -0.057,-9.474 9.916,-10.764 16.767,-11.225 7.612,-0.512 17.591,2.464 17.205,10.085 -0.237,4.654 -3.411,12.528 -17.943,12.555 -6.967,0.012 -15.986,-4.449 -16.029,-11.415 z"
             inkscape:connector-curvature="0"
             style="fill:#ec6a50;stroke:#ec6a50" /><path
             id="path2852"
             sodipodi:nodetypes="cscssssccssssc"
             d="m 800.496,451.352 c 0,0 11.662,-13.087 15.247,-23.061 1.822,-5.065 -4.413,-11.91 -4.413,-11.91 0,0 -45.734,3.959 -107.945,50.958 -20.57,15.543 -42.659,33.882 -57.539,54.933 -5.6,7.922 -5.37,19.35 -11.821,26.597 -6.216,6.982 -16.423,19.565 -24.133,14.281 -8.238,-5.643 -8.991,-15.496 -2.737,-23.281 56.484,-53.834 101.989,-89.06 163.295,-123.979 3.852,-1.904 -8.865,-5.061 -8.865,-9.357 0,-3.516 8.3,-6.833 16.686,-12.379 4.642,-3.069 7.321,-9.224 13.356,-10.771 9.512,-2.435 21.938,2.619 25.366,11.821 1.434,3.855 -3.694,9.358 -3.694,9.358"
             inkscape:connector-curvature="0"
             style="fill:none;stroke:#ec6a50;stroke-width:4.80000019" /></g></g></g><g
       aria-label="CUP"
       transform="matrix(0.79856875,0,0,0.79856875,230.42371,500.46355)"
       style="font-style:normal;font-variant:normal;font-weight:bold;font-stretch:normal;font-size:241.33300781px;line-height:125%;font-family:Sans;-inkscape-font-specification:'Sans Bold';letter-spacing:0px;word-spacing:0px;fill:#ec6a50;fill-opacity:1;stroke:none;stroke-width:1px;stroke-linecap:butt;stroke-linejoin:miter;stroke-opacity:1"
       id="flowRoot23"><path
         d="m 396.21301,141.80679 q -20.99597,0 -32.09729,15.68665 -11.10132,15.68664 -11.10132,42.95727 0,27.51197 10.13599,42.71595 10.37732,14.96264 33.06262,14.96264 10.61866,0 20.99597,-2.41333 10.61866,-2.41333 22.92664,-6.75732 v 30.64929 q -11.34265,4.58533 -22.44397,6.75732 -11.10132,2.172 -24.8573,2.172 -26.54663,0 -43.92261,-10.85998 -17.13464,-11.10132 -25.33996,-30.89063 -8.20532,-20.03064 -8.20532,-46.57727 0,-26.06397 9.41198,-46.0946 9.41199,-20.03064 27.27063,-31.3733 18.09998,-11.34265 44.16394,-11.34265 12.79065,0 25.5813,3.37866 13.03198,3.13733 24.8573,8.68799 l -11.82532,29.68396 q -9.65332,-4.58532 -19.54797,-7.96399 -9.65332,-3.37866 -19.06531,-3.37866 z"
         id="path27"
         inkscape:connector-curvature="0" /><path
         d="m 616.96484,113.81216 v 111.49585 q 0,17.85865 -7.96399,32.33863 -7.72265,14.23864 -23.65063,22.6853 -15.68665,8.20532 -39.81995,8.20532 -34.26928,0 -52.12793,-17.37598 Q 475.5437,253.54397 475.5437,224.82535 V 113.81216 h 36.44129 v 105.46253 q 0,21.2373 8.68798,29.92529 8.68799,8.68799 25.82264,8.68799 17.85864,0 25.82263,-9.41199 8.20532,-9.41199 8.20532,-29.44263 V 113.81216 Z"
         id="path29"
         inkscape:connector-curvature="0" /><path
         d="m 714.18811,113.81216 q 33.30396,0 48.50793,14.47998 15.44532,14.23865 15.44532,39.33728 0,14.96265 -6.27466,28.23597 -6.27466,13.03198 -20.99597,20.99597 -14.47998,7.96399 -39.57862,7.96399 h -15.68664 v 61.29858 H 659.16418 V 113.81216 Z m -1.93066,29.9253 h -16.65198 v 51.16259 h 12.06665 q 15.44531,0 24.37463,-6.03332 9.17066,-6.27466 9.17066,-20.03064 0,-25.09863 -28.95996,-25.09863 z"
         id="path31"
         inkscape:connector-curvature="0" /></g><g
       aria-label="19"
       style="font-style:normal;font-variant:normal;font-weight:bold;font-stretch:normal;font-size:96px;line-height:125%;font-family:Sans;-inkscape-font-specification:'Sans Bold';letter-spacing:0px;word-spacing:0px;fill:#ec6a50;fill-opacity:1;stroke:none;stroke-width:1px;stroke-linecap:butt;stroke-linejoin:miter;stroke-opacity:1"
       id="text36"
       transform="translate(10)"><path
         d="m 885.07708,729.00983 h -14.496 v -39.648 q 0,-2.496 0.096,-6.528 0.192,-4.032 0.288,-7.104 -0.48,0.576 -2.112,2.112 -1.536,1.44 -2.88,2.592 l -7.872,6.336 -7.008,-8.736 22.08,-17.568 h 11.904 z"
         id="path38"
         inkscape:connector-curvature="0" /><path
         d="m 951.82258,689.74583 q 0,5.856 -0.864,11.712 -0.864,5.76 -3.072,10.944 -2.112,5.088 -6.048,9.12 -3.84,3.936 -9.888,6.24 -5.952,2.208 -14.496,2.208 -2.016,0 -4.704,-0.192 -2.688,-0.096 -4.512,-0.48 v -11.616 q 1.92,0.384 4.032,0.672 2.112,0.288 4.224,0.288 8.544,0 13.152,-2.688 4.704,-2.784 6.624,-7.584 1.92,-4.8 2.208,-11.136 h -0.576 q -2.016,3.36 -5.376,5.664 -3.264,2.304 -9.792,2.304 -8.736,0 -14.016,-5.664 -5.28,-5.664 -5.28,-16.032 0,-11.136 6.24,-17.472 6.336,-6.336 17.088,-6.336 7.008,0 12.672,3.264 5.664,3.168 9.024,9.888 3.36,6.624 3.36,16.896 z m -24.768,-18.432 q -4.224,0 -6.912,2.88 -2.688,2.88 -2.688,9.12 0,4.992 2.304,7.872 2.304,2.88 7.008,2.88 3.264,0 5.568,-1.44 2.4,-1.44 3.744,-3.552 1.344,-2.208 1.344,-4.512 0,-3.168 -1.152,-6.24 -1.152,-3.072 -3.456,-4.992 -2.304,-2.016 -5.76,-2.016 z"
         id="path40"
         inkscape:connector-curvature="0" /></g><path
       inkscape:connector-curvature="0"
       id="path2832"
       style="font-style:normal;font-variant:normal;font-weight:300;font-stretch:normal;font-size:69.95552826px;line-height:100%;font-family:PostAntiqua;-inkscape-font-specification:'PostAntiqua Light';text-align:start;writing-mode:lr-tb;text-anchor:start;fill:#4d4d4d;fill-opacity:1;stroke:none;stroke-width:0.81111491"
       d="m 521.56144,534.29203 c -0.68345,-0.86809 -1.67163,-1.67619 -2.96454,-2.42427 -1.29298,-0.74804 -2.76602,-1.3391 -4.41912,-1.77321 -1.65314,-0.43402 -3.32012,-0.65104 -5.00094,-0.65108 -1.86556,4e-5 -3.62489,0.28171 -5.27799,0.84504 -1.65316,0.56339 -3.15851,1.49615 -4.51609,2.79831 -1.35761,1.30221 -2.43353,3.02922 -3.22776,5.18103 -0.79425,2.15185 -1.19136,4.74237 -1.19136,7.77154 v 0.66495 c 0,3.95273 0.88659,7.18972 2.65978,9.71096 1.77318,2.52125 3.7403,4.34062 5.90139,5.45809 2.16105,1.11748 3.7403,1.67621 4.73773,1.67621 3.82342,0 6.8018,-0.64184 8.9352,-1.92557 2.13333,-1.2837 3.64332,-2.88602 4.52994,-4.80699 0.88655,-1.92094 1.56074,-4.32213 2.02254,-7.20357 0.46173,-2.88141 0.7665,-4.58994 0.9143,-5.12562 l 5.76286,-0.88659 c -4e-5,0.97897 -0.57263,3.38478 -1.71777,7.21743 -1.14524,3.83267 -2.53515,8.07631 -4.16977,12.73091 -1.63469,4.65462 -3.07079,8.49651 -4.30828,11.52571 -0.44334,0.24013 -1.00207,0.41097 -1.67622,0.51258 -0.67422,0.10157 -1.28837,0.20316 -1.84245,0.30476 -0.55415,0.10157 -1.00668,0.27243 -1.3576,0.51256 l -0.44329,-0.4433 4.87626,-13.7422 c -2.65982,1.6439 -5.1395,2.84449 -7.43907,3.60179 -2.29963,0.7573 -4.47455,1.13596 -6.52477,1.13596 -3.60181,0 -6.66794,-1.03437 -9.19842,-3.1031 -2.53048,-2.0687 -4.4422,-4.49759 -5.73514,-7.28668 -1.29296,-2.78906 -2.00407,-5.19025 -2.13337,-7.20356 -0.0554,-0.6834 -0.0831,-1.36682 -0.0831,-2.05025 0,-2.58588 0.44329,-5.024 1.32989,-7.3144 0.88659,-2.29033 2.32268,-4.40523 4.30829,-6.34468 1.98559,-1.93939 4.60381,-3.62022 7.85466,-5.04251 3.25082,-1.42219 7.20354,-2.48426 11.85818,-3.18618 0.29552,-0.0369 0.54486,-0.0554 0.74807,-0.0554 1.62538,5e-5 3.63408,0.50337 6.02607,1.50998 2.39191,1.00669 4.41906,2.14725 6.08147,3.42169 z" /><path
       inkscape:connector-curvature="0"
       id="path2834"
       style="font-style:normal;font-variant:normal;font-weight:300;font-stretch:normal;font-size:69.95552826px;line-height:100%;font-family:PostAntiqua;-inkscape-font-specification:'PostAntiqua Light';text-align:start;writing-mode:lr-tb;text-anchor:start;fill:#4d4d4d;fill-opacity:1;stroke:none;stroke-width:0.81111491"
       d="m 551.03777,524.9828 7.97933,-1.32989 -1.32988,39.89669 c 2.34576,0 4.70077,-0.0508 7.06503,-0.15238 2.36424,-0.10157 4.79774,-0.38326 7.30055,-0.84503 2.50275,-0.46176 4.36367,-1.16365 5.58277,-2.10567 l 0.4433,0.88661 c -0.1478,0.29553 -0.35099,0.72035 -0.60955,1.27447 -0.25861,0.55413 -0.48026,1.02975 -0.66494,1.42686 -0.18473,0.39713 -0.411,0.8589 -0.6788,1.3853 -0.26786,0.52642 -0.50335,0.9374 -0.70651,1.23292 -2.25344,-0.25859 -4.98709,-0.38788 -8.20098,-0.38788 -0.92355,0 -2.08259,0.0138 -3.4771,0.0416 -1.39455,0.0277 -2.80757,0.0646 -4.23903,0.1108 -1.43148,0.0462 -3.05691,0.097 -4.87626,0.15238 -1.81937,0.0554 -3.16311,0.0831 -4.03123,0.0831 0.22164,-1.64389 0.4202,-3.41706 0.59568,-5.31956 0.17547,-1.90248 0.32323,-3.87421 0.4433,-5.91524 0.12005,-2.04099 0.20778,-4.04044 0.26321,-5.99836 0.0554,-1.95787 0.0831,-3.89729 0.0831,-5.81826 -1e-5,-3.34317 -0.0739,-6.52474 -0.22164,-9.54473 -0.14778,-3.01992 -0.3879,-6.0445 -0.72036,-9.07373 z" /><path
       inkscape:connector-curvature="0"
       style="font-style:normal;font-variant:normal;font-weight:300;font-stretch:normal;font-size:69.95552826px;line-height:100%;font-family:PostAntiqua;-inkscape-font-specification:'PostAntiqua Light';text-align:start;writing-mode:lr-tb;text-anchor:start;fill:#4d4d4d;fill-opacity:1;stroke:none;stroke-width:0.81111491"
       id="path2836"
       d="m 621.93775,525.86939 c 0.54377,1.82864 1.58106,4.31294 3.11186,7.45292 1.53071,3.14005 3.39377,6.74184 5.58923,10.80536 2.19538,4.06358 4.35554,8.05324 6.4805,11.96901 2.12488,3.9158 3.83186,7.13893 5.12096,9.6694 -3.22267,0.59108 -5.47851,1.03437 -6.76751,1.32991 -0.66472,-1.23755 -1.51569,-2.89991 -2.55293,-4.9871 -1.03733,-2.08717 -1.95376,-3.92963 -2.74931,-5.52734 -0.79562,-1.59772 -1.63652,-3.19082 -2.52271,-4.7793 -0.88625,-1.58847 -1.82283,-3.14 -2.80973,-4.65461 -2.69898,0.49871 -5.56912,0.74808 -8.61045,0.74806 -1.9336,2e-5 -3.73626,-0.10157 -5.40797,-0.30477 -1.20851,2e-5 -2.10984,0.17548 -2.704,0.52641 -0.59418,0.35097 -1.11283,0.91432 -1.55592,1.69007 -0.44312,0.77579 -0.95673,1.66238 -1.54081,2.65979 -0.56398,0.86813 -1.29915,2.01331 -2.20549,3.43554 -0.90637,1.42225 -1.90842,2.95994 -3.00612,4.61306 -1.09771,1.65313 -2.42201,3.551 -3.97288,5.69358 h -5.31733 l -0.4834,-0.4433 c 0.0403,-0.0554 1.92853,-2.67363 5.66478,-7.85466 3.73622,-5.181 6.69197,-9.34615 8.86725,-12.49542 2.17526,-3.14923 4.30018,-6.38622 6.37475,-9.71097 2.07455,-3.32468 3.96785,-6.60323 5.67989,-9.83564 0.96677,0.22169 1.85298,0.33252 2.65868,0.33247 0.80561,5e-5 1.69185,-0.1108 2.65866,-0.33247 z m 2.41697,19.06176 -6.28412,-12.8556 -7.73431,12.8556 c -0.0805,0.0739 -0.12087,0.13855 -0.12085,0.19394 -2e-5,0.42485 1.68179,0.63726 5.04542,0.63724 1.93356,2e-5 3.84699,-0.0831 5.74031,-0.24935 1.89327,-0.16622 3.01111,-0.36016 3.35355,-0.58183 z" /><path
       inkscape:connector-curvature="0"
       style="font-style:normal;font-variant:normal;font-weight:300;font-stretch:normal;font-size:69.95552826px;line-height:100%;font-family:PostAntiqua;-inkscape-font-specification:'PostAntiqua Light';text-align:start;writing-mode:lr-tb;text-anchor:start;fill:#4d4d4d;fill-opacity:1;stroke:none;stroke-width:0.81111491"
       id="path2838"
       d="m 680.71912,528.52917 -3.98967,2.65978 c -1.95791,-1.62538 -4.03586,-2.43809 -6.23385,-2.43814 -1.32991,5e-5 -2.57207,0.31404 -3.72647,0.94201 -1.15443,0.62805 -2.07335,1.47308 -2.75675,2.53511 -0.68342,1.0621 -1.02513,2.2119 -1.02512,3.4494 -10e-6,1.68086 0.67879,3.30167 2.03639,4.86241 1.35758,1.56079 3.48633,2.87684 6.38624,3.94811 2.91836,1.08979 5.06096,2.28116 6.42781,3.57408 1.36681,1.29297 2.05022,3.02921 2.05024,5.20874 -2e-5,0.20319 -0.0185,0.52643 -0.0554,0.96971 -2e-5,0.97896 -0.39713,2.20264 -1.19136,3.67104 -0.79425,1.46843 -1.92096,2.923 -3.38013,4.36371 -1.4592,1.44072 -3.14928,2.61361 -5.07021,3.51867 -1.92096,0.90507 -3.93427,1.35759 -6.03992,1.35759 -2.62284,0 -5.22721,-0.7573 -7.81309,-2.2719 l 3.98967,-3.54636 c 1.79164,1.44071 3.98042,2.16106 6.56633,2.16106 1.56999,0 3.22312,-0.27705 4.95937,-0.83117 0.62799,-0.42483 1.09437,-0.96509 1.39916,-1.62082 0.30475,-0.65569 0.5772,-1.59308 0.81732,-2.81215 0.16623,-0.83117 0.24934,-1.58847 0.24937,-2.2719 -3e-5,-1.93941 -0.5957,-3.39397 -1.78704,-4.3637 -1.19138,-0.9697 -3.29243,-2.10564 -6.30313,-3.40784 -3.01073,-1.30217 -5.42116,-2.53508 -7.23127,-3.69876 -0.60955,-0.51716 -1.1221,-1.32064 -1.53769,-2.41043 -0.4156,-1.08974 -0.62339,-2.29957 -0.62338,-3.62949 -10e-6,-3.08457 1.16365,-5.50423 3.49096,-7.25898 0.5541,-0.55408 1.45455,-1.25135 2.70133,-2.0918 1.24676,-0.84039 2.72904,-1.59306 4.44683,-2.25804 1.71775,-0.66491 3.50941,-0.99737 5.37496,-0.99742 2.84447,5e-5 5.4673,0.89587 7.86852,2.68748 z" /><path
       inkscape:connector-curvature="0"
       id="path2840"
       style="font-style:normal;font-variant:normal;font-weight:300;font-stretch:normal;font-size:69.95552826px;line-height:100%;font-family:PostAntiqua;-inkscape-font-specification:'PostAntiqua Light';text-align:start;writing-mode:lr-tb;text-anchor:start;fill:#4d4d4d;fill-opacity:1;stroke:none;stroke-width:0.81111491"
       d="m 703.29158,525.4261 c 5.13484,0.31404 9.65092,0.47104 13.54825,0.471 5.70743,4e-5 9.17068,-0.30473 10.38976,-0.9143 l 0.88661,0.88659 -3.54639,3.54637 c -3.19545,-0.49867 -6.20617,-0.74801 -9.03217,-0.74806 -1.81014,5e-5 -3.67567,0.10157 -5.59661,0.30477 -0.0923,1.18216 -0.18934,2.39199 -0.29091,3.62948 -0.10157,1.23758 -0.18472,2.45203 -0.24936,3.64335 -0.0646,1.1914 -0.0969,2.35966 -0.0969,3.50482 0,1.51462 0.0646,2.9461 0.19394,4.29443 2.95531,0.29556 5.59661,0.44332 7.92394,0.4433 3.1954,2e-5 5.28259,-0.29551 6.26156,-0.88659 l 0.88659,0.88659 -2.65978,3.10308 -11.52572,-0.44329 c -0.53566,10e-6 -0.89122,0.3371 -1.06668,1.01125 -0.17548,0.67421 -0.26321,1.85172 -0.2632,3.53252 -1e-5,0.57261 0.0185,1.85632 0.0554,3.85115 0.0369,1.99485 0.0554,3.71262 0.0554,5.15333 -2e-5,2.17954 -0.0369,4.31291 -0.11081,6.4001 -0.49871,-0.12931 -1.08054,-0.19395 -1.74549,-0.19395 -1.0713,0 -2.70596,0.21241 -4.90396,0.63725 0.0554,-1.55155 0.1847,-4.04972 0.38788,-7.4945 0.20317,-3.44478 0.37403,-6.377 0.51256,-8.79667 0.13853,-2.41964 0.25396,-4.89009 0.34634,-7.41136 0.0923,-2.52123 0.13851,-5.08402 0.13853,-7.68843 -2e-5,-4.00811 -0.16626,-7.58218 -0.49872,-10.72223 z" /><path
       inkscape:connector-curvature="0"
       id="path2842"
       style="font-style:normal;font-variant:normal;font-weight:300;font-stretch:normal;font-size:69.95552826px;line-height:100%;font-family:PostAntiqua;-inkscape-font-specification:'PostAntiqua Light';text-align:start;writing-mode:lr-tb;text-anchor:start;fill:#4d4d4d;fill-opacity:1;stroke:none;stroke-width:0.81111491"
       d="m 744.8295,524.9828 7.97935,-1.32989 -1.3299,39.89669 c 2.34578,0 4.70077,-0.0508 7.06505,-0.15238 2.36423,-0.10157 4.79774,-0.38326 7.30053,-0.84503 2.50276,-0.46176 4.36368,-1.16365 5.58277,-2.10567 l 0.4433,0.88661 c -0.1478,0.29553 -0.35096,0.72035 -0.60953,1.27447 -0.25863,0.55413 -0.48027,1.02975 -0.66495,1.42686 -0.18473,0.39713 -0.411,0.8589 -0.6788,1.3853 -0.26785,0.52642 -0.50335,0.9374 -0.7065,1.23292 -2.25345,-0.25859 -4.98711,-0.38788 -8.20098,-0.38788 -0.92356,0 -2.08259,0.0138 -3.47712,0.0416 -1.39455,0.0277 -2.80755,0.0646 -4.23901,0.1108 -1.4315,0.0462 -3.05692,0.097 -4.87627,0.15238 -1.81938,0.0554 -3.16312,0.0831 -4.03124,0.0831 0.22165,-1.64389 0.42022,-3.41706 0.59569,-5.31956 0.17547,-1.90248 0.32323,-3.87421 0.44329,-5.91524 0.12007,-2.04099 0.2078,-4.04044 0.26321,-5.99836 0.0554,-1.95787 0.0831,-3.89729 0.0831,-5.81826 0,-3.34317 -0.0739,-6.52474 -0.22164,-9.54473 -0.14776,-3.01992 -0.38789,-6.0445 -0.72036,-9.07373 z" /><path
       inkscape:connector-curvature="0"
       id="path2844"
       style="font-style:normal;font-variant:normal;font-weight:300;font-stretch:normal;font-size:69.95552826px;line-height:100%;font-family:PostAntiqua;-inkscape-font-specification:'PostAntiqua Light';text-align:start;writing-mode:lr-tb;text-anchor:start;fill:#4d4d4d;fill-opacity:1;stroke:none;stroke-width:0.81111491"
       d="m 789.92363,525.4261 c -0.1108,2.06875 -0.16624,4.03587 -0.16623,5.90138 -10e-6,6.03995 0.52641,11.10554 1.57924,15.19677 1.05282,4.09127 2.42889,7.28669 4.12821,9.58628 1.69929,2.29961 3.49555,3.90195 5.38881,4.80701 1.89324,0.90505 3.78187,1.3576 5.6659,1.35759 1.07127,10e-6 2.09177,-0.14315 3.06151,-0.42945 0.96968,-0.28628 1.65771,-0.6049 2.0641,-0.95585 1.10821,-0.942 2.25801,-3.33395 3.44941,-7.17587 1.19132,-3.84189 2.30417,-8.29332 3.33857,-13.35431 1.03432,-5.06093 1.87474,-9.89102 2.52125,-14.49026 2.36421,0.59111 4.28516,0.88664 5.76286,0.8866 -1.10829,6.31701 -2.07338,11.3595 -2.89529,15.12749 -0.82198,3.76805 -1.83325,7.21282 -3.0338,10.33436 -1.20064,3.12155 -2.62288,5.56892 -4.26674,7.3421 -1.60698,2.41966 -3.63875,4.13281 -6.09533,5.13946 -2.45662,1.00666 -5.00558,1.50998 -7.64687,1.50998 -2.06873,0 -4.07279,-0.50332 -6.0122,-1.50998 -1.93944,-1.00665 -3.64798,-2.25341 -5.12562,-3.74031 -1.47766,-1.48689 -2.64131,-2.98762 -3.49097,-4.50222 -1.23754,-2.75213 -2.18416,-5.70282 -2.83986,-8.85209 -0.65572,-3.14923 -1.11749,-6.3816 -1.3853,-9.69712 -0.26782,-3.31545 -0.48485,-7.03268 -0.65109,-11.15167 0.57259,4e-5 1.21444,-0.0646 1.92557,-0.19395 0.71112,-0.12925 1.57,-0.33243 2.57666,-0.60952 1.00665,-0.27703 1.72238,-0.4525 2.14721,-0.52642 z m 14.15779,-8.89364 -1.77318,4.87626 h -6.20616 l -0.4433,-0.88659 c 0.59105,-0.88654 1.18212,-2.21643 1.77319,-3.98967 1.10822,0.12934 2.04101,0.19399 2.79831,0.19394 0.33245,5e-5 0.73882,-0.0185 1.21906,-0.0554 0.48023,-0.0369 0.95123,-0.0691 1.41302,-0.097 0.46174,-0.0277 0.8681,-0.0415 1.21906,-0.0415 z m 3.10308,0 h 7.09274 c -2e-5,1.07135 -0.24015,2.15188 -0.72036,3.24161 -0.48026,1.08981 -1.12674,1.6347 -1.93941,1.63465 h -6.20616 z" /><path
       inkscape:connector-curvature="0"
       id="path2846"
       style="font-style:normal;font-variant:normal;font-weight:300;font-stretch:normal;font-size:69.95552826px;line-height:100%;font-family:PostAntiqua;-inkscape-font-specification:'PostAntiqua Light';text-align:start;writing-mode:lr-tb;text-anchor:start;fill:#4d4d4d;fill-opacity:1;stroke:none;stroke-width:0.81111491"
       d="m 874.82189,534.29203 c -0.68346,-0.86809 -1.67165,-1.67619 -2.96455,-2.42427 -1.29298,-0.74804 -2.76602,-1.3391 -4.41911,-1.77321 -1.65317,-0.43402 -3.32015,-0.65104 -5.00095,-0.65108 -1.86555,4e-5 -3.62489,0.28171 -5.278,0.84504 -1.65314,0.56339 -3.1585,1.49615 -4.51608,2.79831 -1.35762,1.30221 -2.43353,3.02922 -3.22775,5.18103 -0.79425,2.15185 -1.19138,4.74237 -1.19137,7.77154 v 0.66495 c -10e-6,3.95273 0.88659,7.18972 2.65978,9.71096 1.77318,2.52125 3.74031,4.34062 5.90139,5.45809 2.16105,1.11748 3.7403,1.67621 4.73773,1.67621 3.82341,0 6.80181,-0.64184 8.9352,-1.92557 2.13333,-1.2837 3.64331,-2.88602 4.52994,-4.80699 0.88655,-1.92094 1.56073,-4.32213 2.02254,-7.20357 0.46173,-2.88141 0.7665,-4.58994 0.91429,-5.12562 l 5.76286,-0.88659 c -4e-5,0.97897 -0.57264,3.38478 -1.71777,7.21743 -1.14523,3.83267 -2.53514,8.07631 -4.16976,12.73091 -1.6347,4.65462 -3.07079,8.49651 -4.3083,11.52571 -0.44332,0.24013 -1.00206,0.41097 -1.6762,0.51258 -0.67422,0.10157 -1.28837,0.20316 -1.84246,0.30476 -0.55414,0.10157 -1.00668,0.27243 -1.35759,0.51256 l -0.4433,-0.4433 4.87627,-13.7422 c -2.65982,1.6439 -5.13951,2.84449 -7.43908,3.60179 -2.29963,0.7573 -4.47454,1.13596 -6.52477,1.13596 -3.6018,0 -6.66792,-1.03437 -9.19841,-3.1031 -2.53048,-2.0687 -4.4422,-4.49759 -5.73515,-7.28668 -1.29295,-2.78906 -2.00406,-5.19025 -2.13336,-7.20356 -0.0554,-0.6834 -0.0831,-1.36682 -0.0831,-2.05025 0,-2.58588 0.4433,-5.024 1.3299,-7.3144 0.88659,-2.29033 2.32268,-4.40523 4.30829,-6.34468 1.98559,-1.93939 4.60381,-3.62022 7.85466,-5.04251 3.25082,-1.42219 7.20354,-2.48426 11.85818,-3.18618 0.29551,-0.0369 0.54486,-0.0554 0.74806,-0.0554 1.62539,5e-5 3.63408,0.50337 6.02607,1.50998 2.39192,1.00669 4.41907,2.14725 6.08148,3.42169 z" /><path
       inkscape:connector-curvature="0"
       id="path2848"
       style="font-style:normal;font-variant:normal;font-weight:300;font-stretch:normal;font-size:69.95552826px;line-height:100%;font-family:PostAntiqua;-inkscape-font-specification:'PostAntiqua Light';text-align:start;writing-mode:lr-tb;text-anchor:start;fill:#4d4d4d;fill-opacity:1;stroke:none;stroke-width:0.81111491"
       d="m 904.47355,525.86939 c 3.54637,0.4064 7.01886,0.60958 10.41748,0.60954 4.50682,4e-5 8.4226,-0.35091 11.74736,-1.05283 v 1.32989 l -3.54638,2.65977 c -0.92356,-0.36937 -2.77063,-0.55408 -5.54122,-0.55411 -0.83118,3e-5 -1.89325,0.0185 -3.18619,0.0554 -1.29296,0.0369 -2.07796,0.0555 -2.35501,0.0554 l -0.44329,15.07207 c 1.12669,3e-5 2.06869,0.005 2.82601,0.0139 0.7573,0.009 1.58846,0.0231 2.49355,0.0416 2.17952,2e-5 4.15126,-0.0923 5.91524,-0.27706 1.76392,-0.18469 3.33855,-0.55411 4.72388,-1.10825 l 0.44329,0.8866 -3.98967,3.98966 c -1.66238,-0.36938 -3.74957,-0.55409 -6.26156,-0.55412 -0.70191,3e-5 -1.79167,0.0185 -3.26931,0.0554 -1.47768,0.0369 -2.58591,0.0554 -3.32473,0.0554 l -0.88659,16.40198 c 1.08976,0 2.34576,0.0231 3.76801,0.0693 1.42223,0.0462 2.56742,0.0693 3.43556,0.0693 2.17952,0 4.09124,-0.13391 5.73514,-0.40173 1.64388,-0.26783 2.94605,-0.77115 3.90656,-1.50999 l 0.88659,0.88659 -3.98967,3.98968 c -1.88403,-0.25859 -4.06358,-0.38788 -6.53862,-0.38788 -0.94203,0 -2.20727,0.0323 -3.79573,0.0969 -1.58849,0.0646 -3.32012,0.1293 -5.19488,0.19394 -1.87478,0.0646 -3.34782,0.097 -4.41912,0.097 0.33247,-2.7152 0.59106,-5.33341 0.77577,-7.85467 0.1847,-2.52123 0.33246,-5.33801 0.44329,-8.45034 0.11081,-3.11228 0.16623,-5.85057 0.16625,-8.21484 -2e-5,-2.53045 -0.0369,-4.80235 -0.11081,-6.81569 -0.0739,-2.01327 -0.17548,-3.76336 -0.30476,-5.25028 -0.12931,-1.48686 -0.30477,-2.88602 -0.52641,-4.19748 z" /><path
       inkscape:connector-curvature="0"
       style="font-style:normal;font-variant:normal;font-weight:300;font-stretch:normal;font-size:69.95552826px;line-height:100%;font-family:PostAntiqua;-inkscape-font-specification:'PostAntiqua Light';text-align:start;writing-mode:lr-tb;text-anchor:start;fill:#4d4d4d;fill-opacity:1;stroke:none;stroke-width:0.81111491"
       id="path2850"
       d="m 953.05931,524.9828 7.97933,-1.32989 -1.32989,39.89669 c 2.34577,0 4.70078,-0.0508 7.06505,-0.15238 2.36422,-0.10157 4.79774,-0.38326 7.30054,-0.84503 2.50275,-0.46176 4.36367,-1.16365 5.58277,-2.10567 l 0.44329,0.88661 c -0.14779,0.29553 -0.35098,0.72035 -0.60953,1.27447 -0.25862,0.55413 -0.48026,1.02975 -0.66495,1.42686 -0.18473,0.39713 -0.41099,0.8589 -0.67879,1.3853 -0.26786,0.52642 -0.50336,0.9374 -0.70651,1.23292 -2.25345,-0.25859 -4.98711,-0.38788 -8.20098,-0.38788 -0.92356,0 -2.0826,0.0138 -3.47711,0.0416 -1.39455,0.0277 -2.80757,0.0646 -4.23903,0.1108 -1.43148,0.0462 -3.05691,0.097 -4.87625,0.15238 -1.81938,0.0554 -3.16312,0.0831 -4.03124,0.0831 0.22165,-1.64389 0.42021,-3.41706 0.59568,-5.31956 0.17547,-1.90248 0.32323,-3.87421 0.44329,-5.91524 0.12006,-2.04099 0.2078,-4.04044 0.26322,-5.99836 0.0554,-1.95787 0.0831,-3.89729 0.0831,-5.81826 -10e-6,-3.34317 -0.0739,-6.52474 -0.22164,-9.54473 -0.14779,-3.01992 -0.3879,-6.0445 -0.72036,-9.07373 z" /></g></svg>