<?xml version="1.0" encoding="UTF-8" standalone="no"?>
<!-- Generator: Adobe Illustrator 16.0.4, SVG Export Plug-In . SVG Version: 6.00 Build 0)  -->

<svg
   xmlns:dc="http://purl.org/dc/elements/1.1/"
   xmlns:cc="http://creativecommons.org/ns#"
   xmlns:rdf="http://www.w3.org/1999/02/22-rdf-syntax-ns#"
   xmlns:svg="http://www.w3.org/2000/svg"
   xmlns="http://www.w3.org/2000/svg"
   xmlns:sodipodi="http://sodipodi.sourceforge.net/DTD/sodipodi-0.dtd"
   xmlns:inkscape="http://www.inkscape.org/namespaces/inkscape"
   version="1.1"
   id="svg3742"
   inkscape:version="0.91 r13725"
   sodipodi:docname="glasfluegel_logo.svg"
   x="0px"
   y="0px"
   width="425"
   height="425"
   viewBox="0 0 425 425"
   enable-background="new 0 0 425 415"
   xml:space="preserve"><metadata
     id="metadata23"><rdf:RDF><cc:Work
         rdf:about=""><dc:format>image/svg+xml</dc:format><dc:type
           rdf:resource="http://purl.org/dc/dcmitype/StillImage" /><dc:title></dc:title></cc:Work></rdf:RDF></metadata><defs
     id="defs3"><inkscape:perspective
       inkscape:persp3d-origin="372.04724 : 350.78739 : 1"
       sodipodi:type="inkscape:persp3d"
       inkscape:vp_x="0 : 526.18109 : 1"
       inkscape:vp_y="0 : 1000 : 0"
       inkscape:vp_z="744.09448 : 526.18109 : 1"
       id="perspective3750" /><inkscape:perspective
       inkscape:persp3d-origin="0.5 : 0.33333333 : 1"
       sodipodi:type="inkscape:persp3d"
       inkscape:vp_x="0 : 0.5 : 1"
       inkscape:vp_y="0 : 1000 : 0"
       inkscape:vp_z="1 : 0.5 : 1"
       id="perspective3713" /></defs><sodipodi:namedview
     inkscape:pageopacity="0.0"
     inkscape:pageshadow="2"
     inkscape:document-units="px"
     inkscape:current-layer="layer1"
     inkscape:window-width="1920"
     inkscape:window-height="1117"
     inkscape:window-x="1913"
     inkscape:window-y="-10"
     inkscape:window-maximized="1"
     pagecolor="#ffffff"
     bordercolor="#666666"
     borderopacity="1.0"
     inkscape:zoom="1.2881271"
     inkscape:cx="92.94658"
     inkscape:cy="207.5"
     showgrid="false"
     id="base" /><g
     id="layer1"
     transform="translate(-68.79548,-359.45293)"
     inkscape:groupmode="layer"
     inkscape:label="Ebene 1"><g
       id="g3679"
       transform="matrix(0.68517441,0,0,0.68517441,-269.09802,304.06914)"><g
         id="g3665"
         transform="translate(-222.19932,515.5887)"><path
           id="path3661"
           sodipodi:nodetypes="csssssss"
           d="m 1006.737,-63.648 c -55.452,2.527 -129.591,0.413 -150.216,29.55 -10.085,14.247 16.68,61.633 38.909,91.605 19.248,25.956 45.066,43.937 77.325,45.806 43.432,2.514 88.26,-21.654 124.114,-46.297 29.788,-20.471 83.926,-51.551 78.802,-81.757 -4.46,-26.288 -43.793,-36.692 -70.43,-37.924 -25.939,-1.197 -67.825,-2.381 -98.504,-0.983 l 0,0 z"
           inkscape:connector-curvature="0"
           style="fill:#ec6a50" /><path
           id="path3663"
           sodipodi:nodetypes="ccccccccc"
           d="m 924.093,-59.72 -28.627,22.965 -36.691,31.274 7.51,17.361 9.235,-15.393 30.536,-30.043 35.214,-25.118 4.001,-2.831 -21.178,1.785 0,0 z"
           inkscape:connector-curvature="0"
           style="fill:#ffffff" /><g
           id="g3650"
           transform="translate(222.71187,-517.11864)"><g
             id="g3638"
             transform="translate(371.44068,192.9661)"><path
               id="path3630"
               sodipodi:nodetypes="cssscsscscc"
               d="m 408.232,194.879 c 0,0 -149.886,-124.39 -220.554,-182.899 -13.35,-11.052 -32.646,-10.514 -32.736,0 -0.135,15.776 -1.96,33.793 5.276,38.497 23.491,15.27 83.526,49.94 113.133,67.375 0,0 2.913,5.766 1.393,8.009 -1.265,1.866 -4.66,2.511 -6.617,1.393 C 233.94,107.748 166.784,69.792 166.784,69.792 c 0,0 9.375,43.301 20.895,48.408 77.34,34.289 206.518,88.806 206.518,88.806 l 14.035,-12.127 z"
               inkscape:connector-curvature="0"
               style="fill:none;stroke:#ec6a50;stroke-width:5.5" /><path
               id="path3632"
               sodipodi:nodetypes="cssscc"
               d="m 401.03,198.664 c 0,0 -67.878,-45.773 -100.616,-65.935 -2.796,-1.722 -7.839,-2.595 -9.85,0 -1.817,2.345 -0.322,7.085 2.217,8.619 40.832,24.662 105.048,60.272 105.048,60.272 l 3.201,-2.956 z"
               inkscape:connector-curvature="0"
               style="fill:none;stroke:#ec6a50;stroke-width:5.5" /></g><g
             id="g3642"
             transform="translate(1.1328461,0.13086078)"><path
               id="path3634"
               sodipodi:nodetypes="csssssscssscc"
               d="m 815.089,406.557 c 0,0 167.919,-42.959 244.902,-44.327 9.529,-0.168 20.42,8.748 17.239,17.73 -3.995,11.276 -6.153,24.511 -13.791,24.625 -42.867,0.637 -69.181,-0.479 -108.352,0.492 0,0 -4.45,1.102 -4.924,2.955 -0.569,2.211 1.166,5.881 3.446,5.912 37.841,0.497 101.95,1.97 101.95,1.97 0,0 -11.955,12.028 -17.239,16.744 -5.392,4.817 -17.909,12.876 -25.118,12.313 -33.666,-2.628 -60.608,-9.17 -95.055,-14.776 -34.178,-5.56 -104.905,-17.237 -104.905,-17.237 l 1.847,-6.401 z"
               inkscape:connector-curvature="0"
               style="fill:none;stroke:#ec6a50;stroke-width:5.5" /><path
               id="path3636"
               sodipodi:nodetypes="cssscc"
               d="m 817.395,406.272 c 0,0 69.64,-1.799 100.863,-2.212 3.187,-0.041 7.625,2.06 8.01,5.225 0.288,2.363 -2.494,5.234 -4.876,5.224 -31.935,-0.14 -103.831,-3.258 -103.831,-3.258 l -0.166,-4.979 0,0 z"
               inkscape:connector-curvature="0"
               style="fill:none;stroke:#ec6a50;stroke-width:5.5" /></g><path
             id="path3646"
             sodipodi:nodetypes="cssss"
             d="m 780.734,366.326 c 0.971,-6.797 11.643,-8.869 18.469,-8.127 7.586,0.825 20.163,5.823 18.63,13.297 -1.392,6.805 -15.853,10.16 -23.31,8.866 -6.862,-1.192 -14.774,-7.141 -13.789,-14.036 z"
             inkscape:connector-curvature="0"
             style="fill:#ec6a50;stroke:#ec6a50" /><path
             id="path3648"
             sodipodi:nodetypes="cssss"
             d="m 816.011,378.898 c -0.057,-9.474 9.916,-10.764 16.767,-11.225 7.612,-0.512 17.591,2.464 17.205,10.085 -0.237,4.654 -3.411,12.528 -17.943,12.555 -6.967,0.012 -15.986,-4.449 -16.029,-11.415 z"
             inkscape:connector-curvature="0"
             style="fill:#ec6a50;stroke:#ec6a50" /><path
             id="path2852"
             sodipodi:nodetypes="cscssssccssssc"
             d="m 800.496,451.352 c 0,0 11.662,-13.087 15.247,-23.061 1.822,-5.065 -4.413,-11.91 -4.413,-11.91 0,0 -45.734,3.959 -107.945,50.958 -20.57,15.543 -42.659,33.882 -57.539,54.933 -5.6,7.922 -5.37,19.35 -11.821,26.597 -6.216,6.982 -16.423,19.565 -24.133,14.281 -8.238,-5.643 -8.991,-15.496 -2.737,-23.281 56.484,-53.834 101.989,-89.06 163.295,-123.979 3.852,-1.904 -8.865,-5.061 -8.865,-9.357 0,-3.516 8.3,-6.833 16.686,-12.379 4.642,-3.069 7.321,-9.224 13.356,-10.771 9.512,-2.435 21.938,2.619 25.366,11.821 1.434,3.855 -3.694,9.358 -3.694,9.358"
             inkscape:connector-curvature="0"
             style="fill:none;stroke:#ec6a50;stroke-width:4.80000019" /></g></g></g></g></svg>